<?xml version="1.0" encoding="utf-8"?>
<svg version="1.1" xmlns:xlink="http://www.w3.org/1999/xlink" width="167px" height="169px" xmlns="http://www.w3.org/2000/svg">
  <defs>
    <pattern id="BGPattern" patternUnits="userSpaceOnUse" alignment="0 0" imageRepeat="None" />
    <mask fill="white" id="Clip1738">
      <path d="M 133.91488271604933 47.74883126736751  C 134.37009876543215 49.10996075872903  134.7342716049381 50.81137262293101  130.27315432098766 52.25757270750272  C 125.8120370370372 53.78884338528452  123.71804320987664 56.00067880874713  122.2613518518519 56.00067880874713  C 120.80466049382713 56.00067880874713  120.89570370370373 56.00067880874713  119.16588271604958 57.19166711368854  C 117.43606172839502 58.38265541862993  116.16145679012367 60.59449084209255  114.06746296296313 61.10491440135313  C 112.06451234567896 61.615337960613765  110.60782098765443 62.8913968587653  109.24217283950627 63.14660863839557  C 107.8765246913581 63.401820418025935  106.14670370370375 64.67787931617742  105.60044444444456 66.03900880753899  C 105.05418518518518 67.40013829890057  104.32583950617278 70.97310321372481  102.41393209876546 71.82380914582579  C 100.50202469135789 72.67451507792678  100.50202469135789 73.09986804397728  101.0482839506175 74.03564456928841  C 101.59454320987648 74.8863505013894  100.5930679012347 75.90719761991062  99.40950617283954 76.16240939954093  C 98.22594444444458 76.41762117917125  96.13195061728425 77.26832711127228  95.94986419753104 78.2891742297934  C 95.76777777777785 79.31002134831463  94.3110864197533 80.58608024646611  93.40065432098793 81.43678617856716  C 92.49022222222254 82.28749211066814  91.48874691358037 82.62777448350849  91.48874691358037 83.22326863597922  C 91.48874691358037 83.81876278844994  91.03353086419759 84.66946872055094  89.94101234567921 84.83960990697116  C 88.84849382716064 85.00975109339134  88.84849382716064 85.35003346623175  88.84849382716064 86.11566880512264  C 88.84849382716064 86.96637473722365  88.84849382716064 88.8379277878458  87.0276296296297 89.26328075389634  C 85.20676543209895 89.60356312673674  83.2038148148148 90.6244102452579  83.11277160493842 89.85877490636707  C 83.02172839506203 89.09313956747616  82.11129629629623 88.75285719463575  81.65608024691365 89.51849253352667  C 81.10982098765446 90.19905727920747  79.65312962962972 92.83624566872054  77.74122222222258 92.41089270267004  C 75.82931481481482 91.90046914340945  74.19053703703727 91.13483380451855  72.9159320987655 92.32582210945995  C 71.73237037037055 93.5168104144014  66.81603703703708 96.9196341428054  66.63395061728409 93.85709278724175  C 66.4518641975311 90.7945514316782  65.63247530864211 90.11398668599733  64.35787037037055 91.56018677056903  C 63.08326543209899 93.00638685514076  62.537006172839604 93.85709278724175  61.44448765432102 93.85709278724175  C 60.35196913580267 93.85709278724175  59.89675308641988 94.28244575329225  60.26092592592607 95.8137164310741  C 60.625098765432256 97.3449871088559  61.80866049382743 98.53597541379729  59.53258024691368 99.13146956626797  C 57.25650000000016 99.72696371873869  57.074413580246954 101.85372854899121  57.98484567901274 102.44922270146189  C 58.98632098765451 102.95964626072254  59.35049382716069 103.12978744714275  59.35049382716069 104.57598753171447  C 59.35049382716069 106.02218761628608  60.078839506173075 107.29824651443761  60.98927160493866 105.25655227739527  C 61.89970370370403 103.21485804035284  64.26682716049395 98.62104600700732  65.99664814814831 98.87625778663771  C 67.72646913580266 99.2165401594781  67.27125308641986 100.06724609157915  69.1831604938272 100.06724609157915  C 71.09506790123476 100.06724609157915  70.36672222222217 101.25823439652054  69.27420370370402 102.7044344810922  C 68.27272839506183 104.15063456566392  62.7190925925928 107.55345829406788  64.08474074074097 108.65937600579923  C 65.54143209876551 109.7652937175306  68.18168518518523 109.42501134469015  69.8204629629632 106.5326111755467  C 71.45924074074074 103.64021100640333  72.09654320987673 102.53429329467204  72.18758641975312 101.00302261689023  C 72.27862962962972 99.47175193910843  78.28748148148175 96.9196341428054  79.9262592592593 96.40921058354482  C 81.56503703703704 95.89878702428423  83.8411172839508 97.00470473601555  84.29633333333338 95.47343405823375  C 84.66050617283958 93.94216338045194  85.38885185185194 93.34666922798122  86.6634567901235 93.00638685514076  C 87.93806172839528 92.6661044823004  90.12309876543199 91.30497499093877  91.21561728395079 92.32582210945995  C 92.30813580246935 93.34666922798117  92.58126543209872 93.26159863477102  94.22004320987669 92.6661044823004  C 95.85882098765424 92.07061032982962  96.76925308641981 92.58103388909026  95.58569135802486 93.68695160082157  C 94.3110864197533 94.70779871934273  95.22151851851866 96.9196341428054  95.40360493827166 97.85541066811653  C 95.58569135802486 98.79118719342762  98.59011728395056 99.89710490515897  99.68263580246933 97.94048126132662  C 100.77515432098791 95.98385761749428  99.77367901234574 92.83624566872058  101.0482839506175 92.83624566872058  C 102.32288888888907 92.83624566872058  104.78105555555558 92.49596329588012  103.41540740740743 91.64525736377912  C 102.04975925925926 90.7945514316782  99.13637654320995 89.34835134710643  96.95133950617301 90.62441024525796  C 94.7663024691361 91.90046914340951  93.03648148148152 91.21990439772864  92.67230864197532 90.53933965204789  C 92.30813580246915 89.85877490636707  95.31256172839505 87.90215126253477  96.04090740740745 87.05144533043378  C 96.76925308641981 86.20073939833273  96.40508024691363 84.49932753413077  98.49907407407417 84.32918634771057  C 100.5930679012347 84.15904516129041  100.8661975308643 84.32918634771057  102.68706172839526 83.30833922918936  C 104.50792592592599 82.28749211066814  106.32879012345695 81.94720973782779  107.69443827160511 81.94720973782779  C 109.06008641975328 81.8621391446177  110.15260493827185 80.75622143288633  110.15260493827185 80.0756566872056  C 110.24364814814824 79.39509194152477  110.88095061728401 79.05480956868436  111.51825308642 79.565233127945  C 112.15555555555578 80.0756566872056  114.61372222222232 79.82044490757526  114.34059259259291 80.67115083967632  C 114.15850617283974 81.52185677177735  114.24954938271634 81.77706855140761  115.43311111111129 81.77706855140761  C 116.61667283950646 81.77706855140761  117.43606172839523 82.2874921106682  118.07336419753102 83.98890397487018  C 118.710666666667 85.6903158390722  118.61962345679018 87.05144533043384  117.16293209876564 87.39172770327424  C 115.70624074074108 87.81708066932472  115.43311111111129 88.15736304216509  115.43311111111129 89.1782101606863  C 115.52415432098789 90.19905727920752  114.70476543209911 90.28412787241761  113.97641975308653 90.53933965204789  C 113.24807407407435 90.79455143167824  109.78843209876565 91.90046914340951  111.4272098765434 93.17652804156103  C 113.06598765432116 94.45258693971257  113.33911728395096 94.96301049897316  114.06746296296313 94.87793990576307  C 114.7958086419755 94.79286931255292  114.24954938271634 98.79118719342766  115.2510246913583 99.04639897305799  C 116.25250000000005 99.2165401594781  119.89422839506196 100.15231668478923  118.61962345679018 101.68358736257115  C 117.34501851851884 103.12978744714275  116.25250000000005 103.72528159961347  116.34354320987687 104.3207757520842  C 116.43458641975326 104.91626990455488  115.52415432098789 104.83119931134483  115.06893827160509 104.06556397245389  C 114.5226790123459 103.29992863356303  113.61224691358055 103.8954227860337  113.06598765432116 104.57598753171447  C 112.51972839506197 105.17148168418518  111.60929629629639 107.63852888727813  110.69886419753104 108.06388185332862  C 109.78843209876565 108.48923481937916  109.24217283950648 109.16979956505999  110.15260493827185 109.68022312432056  C 110.9719938271606 110.19064668358115  113.97641975308653 110.36078787000132  113.06598765432116 111.63684676815286  C 112.15555555555578 112.9129056663044  110.60782098765462 114.10389397124574  111.97346913580279 114.18896456445582  C 113.33911728395096 114.27403515766596  116.16145679012367 114.01882337803565  114.70476543209911 114.95459990334673  C 113.24807407407415 115.89037642865786  111.7913827160496 115.89037642865786  111.7913827160496 117.42164710643961  C 111.7913827160496 118.95291778422141  109.51530246913606 119.63348252990234  112.33764197530877 120.99461202126385  C 115.15998148148148 122.35574151262547  115.34206790123469 122.78109447867591  116.98084567901245 121.93038854657493  C 118.52858024691379 121.07968261447394  119.98527160493856 121.84531795336484  119.07483950617276 122.95123566509615  C 118.07336419753102 124.05715337682756  116.61667283950646 124.99292990213858  117.61814814814822 126.18391820707997  C 118.71066666666678 127.37490651202137  118.43753703703719 129.0763183762234  117.34501851851863 128.82110659659313  C 116.25250000000005 128.65096541017292  115.70624074074108 127.97040066449215  115.43311111111129 128.9912477830133  C 115.15998148148148 130.01209490153448  110.88095061728401 132.30900091820723  109.97051851851865 132.56421269783752  C 109.06008641975328 132.9044950706779  105.87357407407416 136.98788354476272  104.32583950617278 135.62675405340104  C 102.77810493827144 134.1805539688294  102.96019135802464 133.6701304095688  102.14080246913608 132.98956566388802  C 101.3214135802471 132.30900091820723  98.13490123456798 130.86280083363548  100.6841111111111 129.0763183762234  C 103.32436419753103 127.28983591881124  102.59601851851866 125.75856524102943  101.95871604938287 124.73771812250816  C 101.32141358024688 123.71687100398704  99.86472222222233 123.37658863114665  101.50350000000009 121.6751767669446  C 103.05123456790145 120.05883549595278  102.59601851851866 119.46334134348193  101.0482839506175 119.46334134348193  C 99.50054938271614 119.46334134348193  97.67968518518519 119.12305897064158  99.86472222222233 118.01714125891029  C 101.95871604938287 116.91122354717898  103.87062345679021 113.67854100519514  101.50350000000009 114.69938812371636  C 99.13637654320995 115.72023524223758  98.40803086419757 115.72023524223758  98.40803086419757 114.0188233780356  C 98.40803086419757 112.31741151383356  98.86324691358016 110.53092905642139  97.31551234567921 110.53092905642139  C 95.76777777777785 110.53092905642139  94.67525925925928 110.956282022472  95.49464814814826 111.63684676815275  C 96.31403703703702 112.31741151383356  98.59011728395056 117.59178829285977  96.95133950617301 117.59178829285977  C 95.31256172839505 117.59178829285977  94.58421604938289 118.52756481817092  95.85882098765424 120.1439060891628  C 97.04238271604919 121.76024736015465  97.31551234567921 123.6318004107769  97.133425925926 125.67349464781934  C 96.9513395061728 127.63011829165163  96.76925308641981 128.2256124441223  95.67673456790104 128.99124778301316  C 94.58421604938268 129.75688312190405  94.76630246913567 132.73435388425762  93.94691358024689 132.4791421046273  C 93.1275246913579 132.22393032499699  92.94543827160491 129.5016713422738  92.03500617283956 129.9270243083243  C 91.12457407407419 130.35237727437485  90.0320555555556 133.24477744351822  87.66493209876569 133.07463625709804  C 85.29780864197512 132.90449507067783  83.4769444444444 133.15970685030817  83.4769444444444 130.18223608795466  C 83.4769444444444 127.28983591881124  84.93363580246914 118.2723530385406  83.93216049382718 118.35742363175073  C 82.93068518518521 118.52756481817092  83.65903086419759 119.29320015706176  82.65755555555562 119.37827075027185  C 81.65608024691343 119.46334134348204  81.20086419753085 120.05883549595278  81.83816666666664 120.5692590552133  C 82.38442592592602 121.07968261447394  81.83816666666664 123.716871003987  81.83816666666664 125.2481416817688  C 81.83816666666664 126.7794123595506  81.29190740740745 128.73603600338294  82.02025308641984 129.9270243083243  C 82.74859876543222 131.11801261326573  81.83816666666664 133.3298480367283  81.20086419753085 132.3090009182071  C 80.5635617283953 131.28815379968597  79.7441728395061 130.01209490153443  78.65165432098773 129.41660074906378  C 77.55913580246937 128.82110659659304  78.46956790123474 127.63011829165163  78.83374074074072 126.43912998671024  C 79.19791358024713 125.2481416817688  79.65312962962992 122.69602388546588  78.37852469135814 121.76024736015475  C 77.10391975308679 120.82447083484357  75.19201234567903 119.8036237163224  76.01140123456801 121.16475320768402  C 76.830790123457 122.52588269904565  78.28748148148175 124.65264752929816  76.46661728395081 124.14222397003753  C 74.64575308641984 123.6318004107769  71.36819753086435 122.69602388546588  70.73089506172856 123.54672981756693  C 70.09359259259278 124.39743574966786  69.54733333333361 125.33321227497899  70.45776543209898 126.09884761386984  C 71.36819753086456 126.86448295276074  72.46071604938312 127.88533007128201  71.36819753086456 129.0763183762234  C 70.27567901234599 130.2673066811647  69.63837654321 129.0763183762234  70.0025493827164 131.28815379968597  C 70.36672222222238 133.49998922314865  70.91298148148176 134.52083634166982  69.72941975308682 134.60590693487987  C 68.54585802469184 134.69097752808997  65.54143209876572 137.24309532439298  65.63247530864233 135.2014010873506  C 65.72351851851872 133.15970685030817  65.54143209876572 132.0537891385769  64.99517283950632 133.32984803672835  C 64.44891358024715 134.60590693487987  64.08474074074097 135.96703642624146  63.53848148148178 136.8177423583425  C 62.99222222222239 137.66844829044348  63.174308641975585 137.41323651081322  62.081790123456805 136.4774599855021  C 60.98927160493866 135.45661286698095  59.077364197531104 134.26562456203953  58.07588888888913 135.71182464661123  C 57.34754320987675 136.73267176513247  57.16545679012376 137.24309532439304  57.71171604938294 137.49830710402333  C 56.61919753086458 137.49830710402333  53.88790123456826 137.66844829044348  52.5222530864201 138.68929540896477  C 50.883475308642346 139.9653543071163  45.2387962962965 140.47577786637694  41.323938271605215 140.64591905279704  C 37.40908024691372 140.7309896460072  37.40908024691372 135.96703642624158  37.135950617284344 133.58505981635878  C 36.86282098765433 131.20308320647592  34.58674074074101 131.11801261326585  32.492746913580255 131.20308320647592  C 30.30770987654353 131.28815379968606  29.397277777777955 129.0763183762234  29.761450617283934 127.80025947807187  C 30.125623456790333 126.52420057992043  31.036055555555706 124.3974357496679  30.398753086419713 121.76024736015479  C 29.761450617283934 119.1230589706417  34.31361111111121 114.86952931013664  36.58969135802474 112.74276447988406  C 38.86577160493827 110.61599964963158  36.13447530864216 107.12810532801748  35.315086419753385 105.42669346381545  C 34.495697530864405 103.64021100640333  36.13447530864216 102.95964626072258  36.22551851851876 97.7703400749064  C 36.31656172839515 92.49596329588023  34.131524691358216 93.26159863477112  31.218141975308907 92.32582210945999  C 28.21371604938299 91.39004558414892  26.30180864197565 92.49596329588023  24.663030864197687 90.79455143167824  C 23.02425308642004 89.00806897426614  23.661555555555715 87.64693948290456  23.75259876543242 85.77538643228229  C 23.843641975308916 83.90383338166014  23.661555555555715 82.20242151745805  22.02277777777796 81.94720973782779  C 20.384000000000107 81.77706855140755  18.83626543209906 81.01143321251672  16.74227160493852 79.82044490757526  C 14.64827777777787 78.62945660263388  15.558709876543556 76.75790355201165  16.104969135802737 75.39677406065009  C 16.651228395062024 74.03564456928841  16.196012345679232 70.37760906125418  15.103493827160765 69.01647956989257  C 14.010975308642195 67.65535007853093  17.01540123456811 64.42266753654715  19.47356790123484 63.31674982481585  C 21.931734567901465 62.21083211308454  22.295907407407555 61.3601261809835  22.295907407407555 60.1691378760421  C 22.295907407407555 58.97814957110076  21.749648148148268 55.9156082155371  19.200438271605144 55.320114063066434  C 16.651228395062024 54.724619910595706  15.467666666666851 53.27841982602404  13.82888888888931 51.832219741452334  C 12.281154320987948 50.38601965688062  11.552808641975567 48.85474897909882  12.372197530864442 48.68460779267864  C 13.19158641975332 48.51446660625841  14.83036419753107 45.79220762353516  14.83036419753107 44.3460075389635  C 14.83036419753107 42.81473686118175  15.376623456790357 43.069948640812015  17.01540123456811 42.7296662679716  C 18.65417901234586 42.30431330192111  20.019827160494025 38.73134838709687  19.56461111111123 37.115007116104984  C 19.109395061728755 35.413595251903004  16.83331481481491 36.17923059079391  13.37367283950652 36.34937177721408  C 9.914030864197711 36.519512963634256  8.912555555555635 34.222606946961555  8.548382716049549 32.7764068623899  C 8.184209876543463 31.330206777818184  7.546907407407578 28.607947795094933  5.36187037037054 27.161747710523272  C 3.541006172839798 25.970759405581877  1.0828395061730653 20.27102966050516  0.26345061728418945 18.229335423462725  C 5.5439567901236355 15.507076440739578  11.18863580246948 12.104252712335516  12.463240740740833 10.82819381418398  C 14.64827777777787 8.616358390721365  23.206339506173137 4.788181696266912  27.303283950617622 2.5763462728042974  C 31.400228395061895 0.3645108493416828  36.13447530864216 -0.14591270991890035  40.504549382716235 1.3853579678629018  C 44.78358024691371 2.9166286456447037  59.623623456790284 9.126781949982  64.44891358024715 15.677217627159756  C 69.27420370370359 22.22765330433746  75.10096913580264 31.245136184608146  79.7441728395061 35.15838347227274  C 84.38737654320998 39.07163075993733  84.66050617283958 41.19839559018981  86.4813703703703 41.368536776610036  C 88.30223456790127 41.62374855624035  90.12309876543199 39.83726609882823  91.67083333333336 39.75219550561815  C 93.21856790123472 39.667124912408006  94.03795679012349 42.559525081551485  97.04238271604962 41.6237485562403  C 100.04680864197512 40.773042624139364  101.59454320987648 40.34768965808887  100.77515432098791 41.87896033587062  C 99.95576543209893 43.41023101365247  97.5886419753088 44.09079575933329  100.8661975308643 45.02657228464437  C 104.1437530864198 45.962348809955444  108.14965432098789 45.19671347106454  110.42573456790144 47.49361948773724  C 112.70181481481497 49.79052550440995  115.2510246913583 49.28010194514936  117.16293209876544 49.19503135193922  C 119.07483950617276 49.10996075872919  121.80613580246931 50.47109025009076  124.44638888888903 49.87559609762009  C 127.08664197530875 49.28010194514936  128.99854938271588 48.854748979098865  130.63732716049404 47.32347830131707  C 132.185061728395 45.87727821674535  132.9134074074076 46.13248999637567  133.91488271604933 47.74883126736751  Z M 120.44048765432093 142.68761328983933  C 119.80318518518536 142.09211913736863  118.89275308641977 141.496624984898  119.53005555555578 141.07127201884745  C 120.16735802469134 140.64591905279696  121.16883333333331 137.49830710402327  120.53153086419753 136.9878835447626  C 119.89422839506175 136.47745998550198  116.34354320987666 130.69265964721518  115.88832716049366 130.52251846079497  C 115.34206790123447 130.3523772743748  115.15998148148148 131.0329420200556  114.15850617283952 131.88364795215665  C 113.15703086419755 132.73435388425762  107.7854814814815 135.1163304941404  108.14965432098768 136.22224820587172  C 108.60487037037048 137.32816591760303  109.06008641975306 138.34901303612432  110.24364814814803 138.5191542225444  C 111.3361666666668 138.6892954089646  113.88537654320993 139.71014252748583  113.52120370370373 140.90113083242724  C 113.24807407407415 142.09211913736863  110.78990740740741 143.62338981515043  112.88390123456774 143.53831922194038  C 114.97789506172808 143.45324862873022  115.52415432098768 144.13381337441106  115.61519753086407 145.2397310861423  C 115.70624074074088 146.43071939108376  116.25250000000005 146.26057820466357  116.07041358024685 147.36649591639488  C 115.88832716049366 148.4724136281262  116.07041358024685 148.98283718738676  116.98084567901223 147.79184888244538  C 117.8912777777776 146.600860577504  118.89275308641977 143.62338981515052  120.34944444444454 143.7084604083605  C 121.8061358024691 143.79353100157064  121.07779012345672 143.36817803552017  120.44048765432093 142.68761328983933  Z M 109.33321604938266 138.77436600217465  C 109.42425925925905 138.17887184970402  107.23922222222231 135.54168346019085  106.78400617283954 135.9670364262414  C 106.32879012345674 136.39238939229185  104.96314197530857 137.5833776972333  104.0527098765432 136.8177423583424  C 103.14227777777784 136.05210701945148  101.41245679012327 135.2014010873506  100.4109814814815 135.1163304941404  C 99.40950617283954 135.1163304941404  97.4065555555556 134.52083634166968  97.58864197530859 135.45661286698078  C 97.77072839506178 136.39238939229185  98.13490123456798 137.4983071040231  98.04385802469137 138.34901303612415  C 97.95281481481477 139.1997189682252  98.40803086419736 139.02957778180502  99.68263580246914 138.85943659538478  C 100.95724074074047 138.6892954089646  102.41393209876546 138.85943659538478  102.68706172839505 139.9653543071161  C 102.96019135802443 141.07127201884745  101.77662962962945 142.68761328983933  101.04828395061729 142.68761328983933  C 100.22889506172831 142.68761328983933  99.77367901234553 143.11296625588983  100.41098148148129 144.13381337441106  C 101.04828395061729 145.1546604929322  101.41245679012327 146.43071939108376  102.50497530864185 145.92029583182313  C 103.50645061728402 145.4098722725625  104.2347962962962 144.98451930651203  104.2347962962962 144.98451930651203  C 104.2347962962962 144.4740957472514  104.59896913580216 139.9653543071161  105.69148765432074 140.0504249003262  C 106.78400617283954 140.13549549353633  109.24217283950584 139.36986015464544  109.33321604938266 138.77436600217465  Z M 146.02362962962982 99.13146956626797  C 145.20424074074063 98.19569304095684  144.38485185185186 98.28076363416697  144.11172222222226 99.13146956626797  C 143.83859259259268 99.98217549836902  141.28938271604935 102.10894032862147  140.92520987654333 102.36415210825176  C 140.56103703703718 102.61936388788212  141.47146913580252 102.95964626072247  141.83564197530873 103.12978744714265  C 142.1998148148149 103.29992863356289  142.6550308641975 103.2148580403528  142.92816049382708 102.95964626072247  C 143.2012901234567 102.70443448109215  146.9340617283952 100.15231668478913  146.02362962962982 99.13146956626797  Z M 130.54628395061724 132.90449507067783  C 130.36419753086426 131.62843617252628  129.0895925925927 131.4582949861061  128.5433333333331 131.54336557931617  C 127.99707407407412 131.62843617252628  127.54185802469132 130.77773024042534  127.81498765432113 130.18223608795455  C 128.1791604938271 129.5016713422738  126.81351234567894 127.20476532560104  125.90308024691359 127.20476532560104  C 125.08369135802481 127.20476532560104  125.08369135802481 127.37490651202127  125.1747345679012 128.4808242237525  C 125.1747345679012 129.5016713422738  125.7209938271606 131.71350676573635  125.2657777777778 132.1388597317869  C 124.90160493827182 132.5642126978374  124.81056172839502 132.90449507067783  124.08221604938284 133.15970685030817  C 123.35387037037046 133.41491862993846  122.2613518518519 134.60590693487978  124.08221604938284 134.4357657484596  C 125.90308024691379 134.26562456203942  126.54038271604956 133.07463625709798  128.45229012345692 133.41491862993846  C 130.36419753086426 133.7552010027788  130.72837037037044 134.09548337561924  130.54628395061724 132.90449507067783  Z " fill-rule="evenodd" />
    </mask>
  </defs>
  <g transform="matrix(1 0 0 1 -902 -336 )">
    <path d="M 133.91488271604933 47.74883126736751  C 134.37009876543215 49.10996075872903  134.7342716049381 50.81137262293101  130.27315432098766 52.25757270750272  C 125.8120370370372 53.78884338528452  123.71804320987664 56.00067880874713  122.2613518518519 56.00067880874713  C 120.80466049382713 56.00067880874713  120.89570370370373 56.00067880874713  119.16588271604958 57.19166711368854  C 117.43606172839502 58.38265541862993  116.16145679012367 60.59449084209255  114.06746296296313 61.10491440135313  C 112.06451234567896 61.615337960613765  110.60782098765443 62.8913968587653  109.24217283950627 63.14660863839557  C 107.8765246913581 63.401820418025935  106.14670370370375 64.67787931617742  105.60044444444456 66.03900880753899  C 105.05418518518518 67.40013829890057  104.32583950617278 70.97310321372481  102.41393209876546 71.82380914582579  C 100.50202469135789 72.67451507792678  100.50202469135789 73.09986804397728  101.0482839506175 74.03564456928841  C 101.59454320987648 74.8863505013894  100.5930679012347 75.90719761991062  99.40950617283954 76.16240939954093  C 98.22594444444458 76.41762117917125  96.13195061728425 77.26832711127228  95.94986419753104 78.2891742297934  C 95.76777777777785 79.31002134831463  94.3110864197533 80.58608024646611  93.40065432098793 81.43678617856716  C 92.49022222222254 82.28749211066814  91.48874691358037 82.62777448350849  91.48874691358037 83.22326863597922  C 91.48874691358037 83.81876278844994  91.03353086419759 84.66946872055094  89.94101234567921 84.83960990697116  C 88.84849382716064 85.00975109339134  88.84849382716064 85.35003346623175  88.84849382716064 86.11566880512264  C 88.84849382716064 86.96637473722365  88.84849382716064 88.8379277878458  87.0276296296297 89.26328075389634  C 85.20676543209895 89.60356312673674  83.2038148148148 90.6244102452579  83.11277160493842 89.85877490636707  C 83.02172839506203 89.09313956747616  82.11129629629623 88.75285719463575  81.65608024691365 89.51849253352667  C 81.10982098765446 90.19905727920747  79.65312962962972 92.83624566872054  77.74122222222258 92.41089270267004  C 75.82931481481482 91.90046914340945  74.19053703703727 91.13483380451855  72.9159320987655 92.32582210945995  C 71.73237037037055 93.5168104144014  66.81603703703708 96.9196341428054  66.63395061728409 93.85709278724175  C 66.4518641975311 90.7945514316782  65.63247530864211 90.11398668599733  64.35787037037055 91.56018677056903  C 63.08326543209899 93.00638685514076  62.537006172839604 93.85709278724175  61.44448765432102 93.85709278724175  C 60.35196913580267 93.85709278724175  59.89675308641988 94.28244575329225  60.26092592592607 95.8137164310741  C 60.625098765432256 97.3449871088559  61.80866049382743 98.53597541379729  59.53258024691368 99.13146956626797  C 57.25650000000016 99.72696371873869  57.074413580246954 101.85372854899121  57.98484567901274 102.44922270146189  C 58.98632098765451 102.95964626072254  59.35049382716069 103.12978744714275  59.35049382716069 104.57598753171447  C 59.35049382716069 106.02218761628608  60.078839506173075 107.29824651443761  60.98927160493866 105.25655227739527  C 61.89970370370403 103.21485804035284  64.26682716049395 98.62104600700732  65.99664814814831 98.87625778663771  C 67.72646913580266 99.2165401594781  67.27125308641986 100.06724609157915  69.1831604938272 100.06724609157915  C 71.09506790123476 100.06724609157915  70.36672222222217 101.25823439652054  69.27420370370402 102.7044344810922  C 68.27272839506183 104.15063456566392  62.7190925925928 107.55345829406788  64.08474074074097 108.65937600579923  C 65.54143209876551 109.7652937175306  68.18168518518523 109.42501134469015  69.8204629629632 106.5326111755467  C 71.45924074074074 103.64021100640333  72.09654320987673 102.53429329467204  72.18758641975312 101.00302261689023  C 72.27862962962972 99.47175193910843  78.28748148148175 96.9196341428054  79.9262592592593 96.40921058354482  C 81.56503703703704 95.89878702428423  83.8411172839508 97.00470473601555  84.29633333333338 95.47343405823375  C 84.66050617283958 93.94216338045194  85.38885185185194 93.34666922798122  86.6634567901235 93.00638685514076  C 87.93806172839528 92.6661044823004  90.12309876543199 91.30497499093877  91.21561728395079 92.32582210945995  C 92.30813580246935 93.34666922798117  92.58126543209872 93.26159863477102  94.22004320987669 92.6661044823004  C 95.85882098765424 92.07061032982962  96.76925308641981 92.58103388909026  95.58569135802486 93.68695160082157  C 94.3110864197533 94.70779871934273  95.22151851851866 96.9196341428054  95.40360493827166 97.85541066811653  C 95.58569135802486 98.79118719342762  98.59011728395056 99.89710490515897  99.68263580246933 97.94048126132662  C 100.77515432098791 95.98385761749428  99.77367901234574 92.83624566872058  101.0482839506175 92.83624566872058  C 102.32288888888907 92.83624566872058  104.78105555555558 92.49596329588012  103.41540740740743 91.64525736377912  C 102.04975925925926 90.7945514316782  99.13637654320995 89.34835134710643  96.95133950617301 90.62441024525796  C 94.7663024691361 91.90046914340951  93.03648148148152 91.21990439772864  92.67230864197532 90.53933965204789  C 92.30813580246915 89.85877490636707  95.31256172839505 87.90215126253477  96.04090740740745 87.05144533043378  C 96.76925308641981 86.20073939833273  96.40508024691363 84.49932753413077  98.49907407407417 84.32918634771057  C 100.5930679012347 84.15904516129041  100.8661975308643 84.32918634771057  102.68706172839526 83.30833922918936  C 104.50792592592599 82.28749211066814  106.32879012345695 81.94720973782779  107.69443827160511 81.94720973782779  C 109.06008641975328 81.8621391446177  110.15260493827185 80.75622143288633  110.15260493827185 80.0756566872056  C 110.24364814814824 79.39509194152477  110.88095061728401 79.05480956868436  111.51825308642 79.565233127945  C 112.15555555555578 80.0756566872056  114.61372222222232 79.82044490757526  114.34059259259291 80.67115083967632  C 114.15850617283974 81.52185677177735  114.24954938271634 81.77706855140761  115.43311111111129 81.77706855140761  C 116.61667283950646 81.77706855140761  117.43606172839523 82.2874921106682  118.07336419753102 83.98890397487018  C 118.710666666667 85.6903158390722  118.61962345679018 87.05144533043384  117.16293209876564 87.39172770327424  C 115.70624074074108 87.81708066932472  115.43311111111129 88.15736304216509  115.43311111111129 89.1782101606863  C 115.52415432098789 90.19905727920752  114.70476543209911 90.28412787241761  113.97641975308653 90.53933965204789  C 113.24807407407435 90.79455143167824  109.78843209876565 91.90046914340951  111.4272098765434 93.17652804156103  C 113.06598765432116 94.45258693971257  113.33911728395096 94.96301049897316  114.06746296296313 94.87793990576307  C 114.7958086419755 94.79286931255292  114.24954938271634 98.79118719342766  115.2510246913583 99.04639897305799  C 116.25250000000005 99.2165401594781  119.89422839506196 100.15231668478923  118.61962345679018 101.68358736257115  C 117.34501851851884 103.12978744714275  116.25250000000005 103.72528159961347  116.34354320987687 104.3207757520842  C 116.43458641975326 104.91626990455488  115.52415432098789 104.83119931134483  115.06893827160509 104.06556397245389  C 114.5226790123459 103.29992863356303  113.61224691358055 103.8954227860337  113.06598765432116 104.57598753171447  C 112.51972839506197 105.17148168418518  111.60929629629639 107.63852888727813  110.69886419753104 108.06388185332862  C 109.78843209876565 108.48923481937916  109.24217283950648 109.16979956505999  110.15260493827185 109.68022312432056  C 110.9719938271606 110.19064668358115  113.97641975308653 110.36078787000132  113.06598765432116 111.63684676815286  C 112.15555555555578 112.9129056663044  110.60782098765462 114.10389397124574  111.97346913580279 114.18896456445582  C 113.33911728395096 114.27403515766596  116.16145679012367 114.01882337803565  114.70476543209911 114.95459990334673  C 113.24807407407415 115.89037642865786  111.7913827160496 115.89037642865786  111.7913827160496 117.42164710643961  C 111.7913827160496 118.95291778422141  109.51530246913606 119.63348252990234  112.33764197530877 120.99461202126385  C 115.15998148148148 122.35574151262547  115.34206790123469 122.78109447867591  116.98084567901245 121.93038854657493  C 118.52858024691379 121.07968261447394  119.98527160493856 121.84531795336484  119.07483950617276 122.95123566509615  C 118.07336419753102 124.05715337682756  116.61667283950646 124.99292990213858  117.61814814814822 126.18391820707997  C 118.71066666666678 127.37490651202137  118.43753703703719 129.0763183762234  117.34501851851863 128.82110659659313  C 116.25250000000005 128.65096541017292  115.70624074074108 127.97040066449215  115.43311111111129 128.9912477830133  C 115.15998148148148 130.01209490153448  110.88095061728401 132.30900091820723  109.97051851851865 132.56421269783752  C 109.06008641975328 132.9044950706779  105.87357407407416 136.98788354476272  104.32583950617278 135.62675405340104  C 102.77810493827144 134.1805539688294  102.96019135802464 133.6701304095688  102.14080246913608 132.98956566388802  C 101.3214135802471 132.30900091820723  98.13490123456798 130.86280083363548  100.6841111111111 129.0763183762234  C 103.32436419753103 127.28983591881124  102.59601851851866 125.75856524102943  101.95871604938287 124.73771812250816  C 101.32141358024688 123.71687100398704  99.86472222222233 123.37658863114665  101.50350000000009 121.6751767669446  C 103.05123456790145 120.05883549595278  102.59601851851866 119.46334134348193  101.0482839506175 119.46334134348193  C 99.50054938271614 119.46334134348193  97.67968518518519 119.12305897064158  99.86472222222233 118.01714125891029  C 101.95871604938287 116.91122354717898  103.87062345679021 113.67854100519514  101.50350000000009 114.69938812371636  C 99.13637654320995 115.72023524223758  98.40803086419757 115.72023524223758  98.40803086419757 114.0188233780356  C 98.40803086419757 112.31741151383356  98.86324691358016 110.53092905642139  97.31551234567921 110.53092905642139  C 95.76777777777785 110.53092905642139  94.67525925925928 110.956282022472  95.49464814814826 111.63684676815275  C 96.31403703703702 112.31741151383356  98.59011728395056 117.59178829285977  96.95133950617301 117.59178829285977  C 95.31256172839505 117.59178829285977  94.58421604938289 118.52756481817092  95.85882098765424 120.1439060891628  C 97.04238271604919 121.76024736015465  97.31551234567921 123.6318004107769  97.133425925926 125.67349464781934  C 96.9513395061728 127.63011829165163  96.76925308641981 128.2256124441223  95.67673456790104 128.99124778301316  C 94.58421604938268 129.75688312190405  94.76630246913567 132.73435388425762  93.94691358024689 132.4791421046273  C 93.1275246913579 132.22393032499699  92.94543827160491 129.5016713422738  92.03500617283956 129.9270243083243  C 91.12457407407419 130.35237727437485  90.0320555555556 133.24477744351822  87.66493209876569 133.07463625709804  C 85.29780864197512 132.90449507067783  83.4769444444444 133.15970685030817  83.4769444444444 130.18223608795466  C 83.4769444444444 127.28983591881124  84.93363580246914 118.2723530385406  83.93216049382718 118.35742363175073  C 82.93068518518521 118.52756481817092  83.65903086419759 119.29320015706176  82.65755555555562 119.37827075027185  C 81.65608024691343 119.46334134348204  81.20086419753085 120.05883549595278  81.83816666666664 120.5692590552133  C 82.38442592592602 121.07968261447394  81.83816666666664 123.716871003987  81.83816666666664 125.2481416817688  C 81.83816666666664 126.7794123595506  81.29190740740745 128.73603600338294  82.02025308641984 129.9270243083243  C 82.74859876543222 131.11801261326573  81.83816666666664 133.3298480367283  81.20086419753085 132.3090009182071  C 80.5635617283953 131.28815379968597  79.7441728395061 130.01209490153443  78.65165432098773 129.41660074906378  C 77.55913580246937 128.82110659659304  78.46956790123474 127.63011829165163  78.83374074074072 126.43912998671024  C 79.19791358024713 125.2481416817688  79.65312962962992 122.69602388546588  78.37852469135814 121.76024736015475  C 77.10391975308679 120.82447083484357  75.19201234567903 119.8036237163224  76.01140123456801 121.16475320768402  C 76.830790123457 122.52588269904565  78.28748148148175 124.65264752929816  76.46661728395081 124.14222397003753  C 74.64575308641984 123.6318004107769  71.36819753086435 122.69602388546588  70.73089506172856 123.54672981756693  C 70.09359259259278 124.39743574966786  69.54733333333361 125.33321227497899  70.45776543209898 126.09884761386984  C 71.36819753086456 126.86448295276074  72.46071604938312 127.88533007128201  71.36819753086456 129.0763183762234  C 70.27567901234599 130.2673066811647  69.63837654321 129.0763183762234  70.0025493827164 131.28815379968597  C 70.36672222222238 133.49998922314865  70.91298148148176 134.52083634166982  69.72941975308682 134.60590693487987  C 68.54585802469184 134.69097752808997  65.54143209876572 137.24309532439298  65.63247530864233 135.2014010873506  C 65.72351851851872 133.15970685030817  65.54143209876572 132.0537891385769  64.99517283950632 133.32984803672835  C 64.44891358024715 134.60590693487987  64.08474074074097 135.96703642624146  63.53848148148178 136.8177423583425  C 62.99222222222239 137.66844829044348  63.174308641975585 137.41323651081322  62.081790123456805 136.4774599855021  C 60.98927160493866 135.45661286698095  59.077364197531104 134.26562456203953  58.07588888888913 135.71182464661123  C 57.34754320987675 136.73267176513247  57.16545679012376 137.24309532439304  57.71171604938294 137.49830710402333  C 56.61919753086458 137.49830710402333  53.88790123456826 137.66844829044348  52.5222530864201 138.68929540896477  C 50.883475308642346 139.9653543071163  45.2387962962965 140.47577786637694  41.323938271605215 140.64591905279704  C 37.40908024691372 140.7309896460072  37.40908024691372 135.96703642624158  37.135950617284344 133.58505981635878  C 36.86282098765433 131.20308320647592  34.58674074074101 131.11801261326585  32.492746913580255 131.20308320647592  C 30.30770987654353 131.28815379968606  29.397277777777955 129.0763183762234  29.761450617283934 127.80025947807187  C 30.125623456790333 126.52420057992043  31.036055555555706 124.3974357496679  30.398753086419713 121.76024736015479  C 29.761450617283934 119.1230589706417  34.31361111111121 114.86952931013664  36.58969135802474 112.74276447988406  C 38.86577160493827 110.61599964963158  36.13447530864216 107.12810532801748  35.315086419753385 105.42669346381545  C 34.495697530864405 103.64021100640333  36.13447530864216 102.95964626072258  36.22551851851876 97.7703400749064  C 36.31656172839515 92.49596329588023  34.131524691358216 93.26159863477112  31.218141975308907 92.32582210945999  C 28.21371604938299 91.39004558414892  26.30180864197565 92.49596329588023  24.663030864197687 90.79455143167824  C 23.02425308642004 89.00806897426614  23.661555555555715 87.64693948290456  23.75259876543242 85.77538643228229  C 23.843641975308916 83.90383338166014  23.661555555555715 82.20242151745805  22.02277777777796 81.94720973782779  C 20.384000000000107 81.77706855140755  18.83626543209906 81.01143321251672  16.74227160493852 79.82044490757526  C 14.64827777777787 78.62945660263388  15.558709876543556 76.75790355201165  16.104969135802737 75.39677406065009  C 16.651228395062024 74.03564456928841  16.196012345679232 70.37760906125418  15.103493827160765 69.01647956989257  C 14.010975308642195 67.65535007853093  17.01540123456811 64.42266753654715  19.47356790123484 63.31674982481585  C 21.931734567901465 62.21083211308454  22.295907407407555 61.3601261809835  22.295907407407555 60.1691378760421  C 22.295907407407555 58.97814957110076  21.749648148148268 55.9156082155371  19.200438271605144 55.320114063066434  C 16.651228395062024 54.724619910595706  15.467666666666851 53.27841982602404  13.82888888888931 51.832219741452334  C 12.281154320987948 50.38601965688062  11.552808641975567 48.85474897909882  12.372197530864442 48.68460779267864  C 13.19158641975332 48.51446660625841  14.83036419753107 45.79220762353516  14.83036419753107 44.3460075389635  C 14.83036419753107 42.81473686118175  15.376623456790357 43.069948640812015  17.01540123456811 42.7296662679716  C 18.65417901234586 42.30431330192111  20.019827160494025 38.73134838709687  19.56461111111123 37.115007116104984  C 19.109395061728755 35.413595251903004  16.83331481481491 36.17923059079391  13.37367283950652 36.34937177721408  C 9.914030864197711 36.519512963634256  8.912555555555635 34.222606946961555  8.548382716049549 32.7764068623899  C 8.184209876543463 31.330206777818184  7.546907407407578 28.607947795094933  5.36187037037054 27.161747710523272  C 3.541006172839798 25.970759405581877  1.0828395061730653 20.27102966050516  0.26345061728418945 18.229335423462725  C 5.5439567901236355 15.507076440739578  11.18863580246948 12.104252712335516  12.463240740740833 10.82819381418398  C 14.64827777777787 8.616358390721365  23.206339506173137 4.788181696266912  27.303283950617622 2.5763462728042974  C 31.400228395061895 0.3645108493416828  36.13447530864216 -0.14591270991890035  40.504549382716235 1.3853579678629018  C 44.78358024691371 2.9166286456447037  59.623623456790284 9.126781949982  64.44891358024715 15.677217627159756  C 69.27420370370359 22.22765330433746  75.10096913580264 31.245136184608146  79.7441728395061 35.15838347227274  C 84.38737654320998 39.07163075993733  84.66050617283958 41.19839559018981  86.4813703703703 41.368536776610036  C 88.30223456790127 41.62374855624035  90.12309876543199 39.83726609882823  91.67083333333336 39.75219550561815  C 93.21856790123472 39.667124912408006  94.03795679012349 42.559525081551485  97.04238271604962 41.6237485562403  C 100.04680864197512 40.773042624139364  101.59454320987648 40.34768965808887  100.77515432098791 41.87896033587062  C 99.95576543209893 43.41023101365247  97.5886419753088 44.09079575933329  100.8661975308643 45.02657228464437  C 104.1437530864198 45.962348809955444  108.14965432098789 45.19671347106454  110.42573456790144 47.49361948773724  C 112.70181481481497 49.79052550440995  115.2510246913583 49.28010194514936  117.16293209876544 49.19503135193922  C 119.07483950617276 49.10996075872919  121.80613580246931 50.47109025009076  124.44638888888903 49.87559609762009  C 127.08664197530875 49.28010194514936  128.99854938271588 48.854748979098865  130.63732716049404 47.32347830131707  C 132.185061728395 45.87727821674535  132.9134074074076 46.13248999637567  133.91488271604933 47.74883126736751  Z M 120.44048765432093 142.68761328983933  C 119.80318518518536 142.09211913736863  118.89275308641977 141.496624984898  119.53005555555578 141.07127201884745  C 120.16735802469134 140.64591905279696  121.16883333333331 137.49830710402327  120.53153086419753 136.9878835447626  C 119.89422839506175 136.47745998550198  116.34354320987666 130.69265964721518  115.88832716049366 130.52251846079497  C 115.34206790123447 130.3523772743748  115.15998148148148 131.0329420200556  114.15850617283952 131.88364795215665  C 113.15703086419755 132.73435388425762  107.7854814814815 135.1163304941404  108.14965432098768 136.22224820587172  C 108.60487037037048 137.32816591760303  109.06008641975306 138.34901303612432  110.24364814814803 138.5191542225444  C 111.3361666666668 138.6892954089646  113.88537654320993 139.71014252748583  113.52120370370373 140.90113083242724  C 113.24807407407415 142.09211913736863  110.78990740740741 143.62338981515043  112.88390123456774 143.53831922194038  C 114.97789506172808 143.45324862873022  115.52415432098768 144.13381337441106  115.61519753086407 145.2397310861423  C 115.70624074074088 146.43071939108376  116.25250000000005 146.26057820466357  116.07041358024685 147.36649591639488  C 115.88832716049366 148.4724136281262  116.07041358024685 148.98283718738676  116.98084567901223 147.79184888244538  C 117.8912777777776 146.600860577504  118.89275308641977 143.62338981515052  120.34944444444454 143.7084604083605  C 121.8061358024691 143.79353100157064  121.07779012345672 143.36817803552017  120.44048765432093 142.68761328983933  Z M 109.33321604938266 138.77436600217465  C 109.42425925925905 138.17887184970402  107.23922222222231 135.54168346019085  106.78400617283954 135.9670364262414  C 106.32879012345674 136.39238939229185  104.96314197530857 137.5833776972333  104.0527098765432 136.8177423583424  C 103.14227777777784 136.05210701945148  101.41245679012327 135.2014010873506  100.4109814814815 135.1163304941404  C 99.40950617283954 135.1163304941404  97.4065555555556 134.52083634166968  97.58864197530859 135.45661286698078  C 97.77072839506178 136.39238939229185  98.13490123456798 137.4983071040231  98.04385802469137 138.34901303612415  C 97.95281481481477 139.1997189682252  98.40803086419736 139.02957778180502  99.68263580246914 138.85943659538478  C 100.95724074074047 138.6892954089646  102.41393209876546 138.85943659538478  102.68706172839505 139.9653543071161  C 102.96019135802443 141.07127201884745  101.77662962962945 142.68761328983933  101.04828395061729 142.68761328983933  C 100.22889506172831 142.68761328983933  99.77367901234553 143.11296625588983  100.41098148148129 144.13381337441106  C 101.04828395061729 145.1546604929322  101.41245679012327 146.43071939108376  102.50497530864185 145.92029583182313  C 103.50645061728402 145.4098722725625  104.2347962962962 144.98451930651203  104.2347962962962 144.98451930651203  C 104.2347962962962 144.4740957472514  104.59896913580216 139.9653543071161  105.69148765432074 140.0504249003262  C 106.78400617283954 140.13549549353633  109.24217283950584 139.36986015464544  109.33321604938266 138.77436600217465  Z M 146.02362962962982 99.13146956626797  C 145.20424074074063 98.19569304095684  144.38485185185186 98.28076363416697  144.11172222222226 99.13146956626797  C 143.83859259259268 99.98217549836902  141.28938271604935 102.10894032862147  140.92520987654333 102.36415210825176  C 140.56103703703718 102.61936388788212  141.47146913580252 102.95964626072247  141.83564197530873 103.12978744714265  C 142.1998148148149 103.29992863356289  142.6550308641975 103.2148580403528  142.92816049382708 102.95964626072247  C 143.2012901234567 102.70443448109215  146.9340617283952 100.15231668478913  146.02362962962982 99.13146956626797  Z M 130.54628395061724 132.90449507067783  C 130.36419753086426 131.62843617252628  129.0895925925927 131.4582949861061  128.5433333333331 131.54336557931617  C 127.99707407407412 131.62843617252628  127.54185802469132 130.77773024042534  127.81498765432113 130.18223608795455  C 128.1791604938271 129.5016713422738  126.81351234567894 127.20476532560104  125.90308024691359 127.20476532560104  C 125.08369135802481 127.20476532560104  125.08369135802481 127.37490651202127  125.1747345679012 128.4808242237525  C 125.1747345679012 129.5016713422738  125.7209938271606 131.71350676573635  125.2657777777778 132.1388597317869  C 124.90160493827182 132.5642126978374  124.81056172839502 132.90449507067783  124.08221604938284 133.15970685030817  C 123.35387037037046 133.41491862993846  122.2613518518519 134.60590693487978  124.08221604938284 134.4357657484596  C 125.90308024691379 134.26562456203942  126.54038271604956 133.07463625709798  128.45229012345692 133.41491862993846  C 130.36419753086426 133.7552010027788  130.72837037037044 134.09548337561924  130.54628395061724 132.90449507067783  Z " fill-rule="nonzero" fill="rgba(22, 97, 188, 1)" stroke="none" transform="matrix(1 0 0 1 912 346 )" class="fill" />
    <path d="M 133.91488271604933 47.74883126736751  C 134.37009876543215 49.10996075872903  134.7342716049381 50.81137262293101  130.27315432098766 52.25757270750272  C 125.8120370370372 53.78884338528452  123.71804320987664 56.00067880874713  122.2613518518519 56.00067880874713  C 120.80466049382713 56.00067880874713  120.89570370370373 56.00067880874713  119.16588271604958 57.19166711368854  C 117.43606172839502 58.38265541862993  116.16145679012367 60.59449084209255  114.06746296296313 61.10491440135313  C 112.06451234567896 61.615337960613765  110.60782098765443 62.8913968587653  109.24217283950627 63.14660863839557  C 107.8765246913581 63.401820418025935  106.14670370370375 64.67787931617742  105.60044444444456 66.03900880753899  C 105.05418518518518 67.40013829890057  104.32583950617278 70.97310321372481  102.41393209876546 71.82380914582579  C 100.50202469135789 72.67451507792678  100.50202469135789 73.09986804397728  101.0482839506175 74.03564456928841  C 101.59454320987648 74.8863505013894  100.5930679012347 75.90719761991062  99.40950617283954 76.16240939954093  C 98.22594444444458 76.41762117917125  96.13195061728425 77.26832711127228  95.94986419753104 78.2891742297934  C 95.76777777777785 79.31002134831463  94.3110864197533 80.58608024646611  93.40065432098793 81.43678617856716  C 92.49022222222254 82.28749211066814  91.48874691358037 82.62777448350849  91.48874691358037 83.22326863597922  C 91.48874691358037 83.81876278844994  91.03353086419759 84.66946872055094  89.94101234567921 84.83960990697116  C 88.84849382716064 85.00975109339134  88.84849382716064 85.35003346623175  88.84849382716064 86.11566880512264  C 88.84849382716064 86.96637473722365  88.84849382716064 88.8379277878458  87.0276296296297 89.26328075389634  C 85.20676543209895 89.60356312673674  83.2038148148148 90.6244102452579  83.11277160493842 89.85877490636707  C 83.02172839506203 89.09313956747616  82.11129629629623 88.75285719463575  81.65608024691365 89.51849253352667  C 81.10982098765446 90.19905727920747  79.65312962962972 92.83624566872054  77.74122222222258 92.41089270267004  C 75.82931481481482 91.90046914340945  74.19053703703727 91.13483380451855  72.9159320987655 92.32582210945995  C 71.73237037037055 93.5168104144014  66.81603703703708 96.9196341428054  66.63395061728409 93.85709278724175  C 66.4518641975311 90.7945514316782  65.63247530864211 90.11398668599733  64.35787037037055 91.56018677056903  C 63.08326543209899 93.00638685514076  62.537006172839604 93.85709278724175  61.44448765432102 93.85709278724175  C 60.35196913580267 93.85709278724175  59.89675308641988 94.28244575329225  60.26092592592607 95.8137164310741  C 60.625098765432256 97.3449871088559  61.80866049382743 98.53597541379729  59.53258024691368 99.13146956626797  C 57.25650000000016 99.72696371873869  57.074413580246954 101.85372854899121  57.98484567901274 102.44922270146189  C 58.98632098765451 102.95964626072254  59.35049382716069 103.12978744714275  59.35049382716069 104.57598753171447  C 59.35049382716069 106.02218761628608  60.078839506173075 107.29824651443761  60.98927160493866 105.25655227739527  C 61.89970370370403 103.21485804035284  64.26682716049395 98.62104600700732  65.99664814814831 98.87625778663771  C 67.72646913580266 99.2165401594781  67.27125308641986 100.06724609157915  69.1831604938272 100.06724609157915  C 71.09506790123476 100.06724609157915  70.36672222222217 101.25823439652054  69.27420370370402 102.7044344810922  C 68.27272839506183 104.15063456566392  62.7190925925928 107.55345829406788  64.08474074074097 108.65937600579923  C 65.54143209876551 109.7652937175306  68.18168518518523 109.42501134469015  69.8204629629632 106.5326111755467  C 71.45924074074074 103.64021100640333  72.09654320987673 102.53429329467204  72.18758641975312 101.00302261689023  C 72.27862962962972 99.47175193910843  78.28748148148175 96.9196341428054  79.9262592592593 96.40921058354482  C 81.56503703703704 95.89878702428423  83.8411172839508 97.00470473601555  84.29633333333338 95.47343405823375  C 84.66050617283958 93.94216338045194  85.38885185185194 93.34666922798122  86.6634567901235 93.00638685514076  C 87.93806172839528 92.6661044823004  90.12309876543199 91.30497499093877  91.21561728395079 92.32582210945995  C 92.30813580246935 93.34666922798117  92.58126543209872 93.26159863477102  94.22004320987669 92.6661044823004  C 95.85882098765424 92.07061032982962  96.76925308641981 92.58103388909026  95.58569135802486 93.68695160082157  C 94.3110864197533 94.70779871934273  95.22151851851866 96.9196341428054  95.40360493827166 97.85541066811653  C 95.58569135802486 98.79118719342762  98.59011728395056 99.89710490515897  99.68263580246933 97.94048126132662  C 100.77515432098791 95.98385761749428  99.77367901234574 92.83624566872058  101.0482839506175 92.83624566872058  C 102.32288888888907 92.83624566872058  104.78105555555558 92.49596329588012  103.41540740740743 91.64525736377912  C 102.04975925925926 90.7945514316782  99.13637654320995 89.34835134710643  96.95133950617301 90.62441024525796  C 94.7663024691361 91.90046914340951  93.03648148148152 91.21990439772864  92.67230864197532 90.53933965204789  C 92.30813580246915 89.85877490636707  95.31256172839505 87.90215126253477  96.04090740740745 87.05144533043378  C 96.76925308641981 86.20073939833273  96.40508024691363 84.49932753413077  98.49907407407417 84.32918634771057  C 100.5930679012347 84.15904516129041  100.8661975308643 84.32918634771057  102.68706172839526 83.30833922918936  C 104.50792592592599 82.28749211066814  106.32879012345695 81.94720973782779  107.69443827160511 81.94720973782779  C 109.06008641975328 81.8621391446177  110.15260493827185 80.75622143288633  110.15260493827185 80.0756566872056  C 110.24364814814824 79.39509194152477  110.88095061728401 79.05480956868436  111.51825308642 79.565233127945  C 112.15555555555578 80.0756566872056  114.61372222222232 79.82044490757526  114.34059259259291 80.67115083967632  C 114.15850617283974 81.52185677177735  114.24954938271634 81.77706855140761  115.43311111111129 81.77706855140761  C 116.61667283950646 81.77706855140761  117.43606172839523 82.2874921106682  118.07336419753102 83.98890397487018  C 118.710666666667 85.6903158390722  118.61962345679018 87.05144533043384  117.16293209876564 87.39172770327424  C 115.70624074074108 87.81708066932472  115.43311111111129 88.15736304216509  115.43311111111129 89.1782101606863  C 115.52415432098789 90.19905727920752  114.70476543209911 90.28412787241761  113.97641975308653 90.53933965204789  C 113.24807407407435 90.79455143167824  109.78843209876565 91.90046914340951  111.4272098765434 93.17652804156103  C 113.06598765432116 94.45258693971257  113.33911728395096 94.96301049897316  114.06746296296313 94.87793990576307  C 114.7958086419755 94.79286931255292  114.24954938271634 98.79118719342766  115.2510246913583 99.04639897305799  C 116.25250000000005 99.2165401594781  119.89422839506196 100.15231668478923  118.61962345679018 101.68358736257115  C 117.34501851851884 103.12978744714275  116.25250000000005 103.72528159961347  116.34354320987687 104.3207757520842  C 116.43458641975326 104.91626990455488  115.52415432098789 104.83119931134483  115.06893827160509 104.06556397245389  C 114.5226790123459 103.29992863356303  113.61224691358055 103.8954227860337  113.06598765432116 104.57598753171447  C 112.51972839506197 105.17148168418518  111.60929629629639 107.63852888727813  110.69886419753104 108.06388185332862  C 109.78843209876565 108.48923481937916  109.24217283950648 109.16979956505999  110.15260493827185 109.68022312432056  C 110.9719938271606 110.19064668358115  113.97641975308653 110.36078787000132  113.06598765432116 111.63684676815286  C 112.15555555555578 112.9129056663044  110.60782098765462 114.10389397124574  111.97346913580279 114.18896456445582  C 113.33911728395096 114.27403515766596  116.16145679012367 114.01882337803565  114.70476543209911 114.95459990334673  C 113.24807407407415 115.89037642865786  111.7913827160496 115.89037642865786  111.7913827160496 117.42164710643961  C 111.7913827160496 118.95291778422141  109.51530246913606 119.63348252990234  112.33764197530877 120.99461202126385  C 115.15998148148148 122.35574151262547  115.34206790123469 122.78109447867591  116.98084567901245 121.93038854657493  C 118.52858024691379 121.07968261447394  119.98527160493856 121.84531795336484  119.07483950617276 122.95123566509615  C 118.07336419753102 124.05715337682756  116.61667283950646 124.99292990213858  117.61814814814822 126.18391820707997  C 118.71066666666678 127.37490651202137  118.43753703703719 129.0763183762234  117.34501851851863 128.82110659659313  C 116.25250000000005 128.65096541017292  115.70624074074108 127.97040066449215  115.43311111111129 128.9912477830133  C 115.15998148148148 130.01209490153448  110.88095061728401 132.30900091820723  109.97051851851865 132.56421269783752  C 109.06008641975328 132.9044950706779  105.87357407407416 136.98788354476272  104.32583950617278 135.62675405340104  C 102.77810493827144 134.1805539688294  102.96019135802464 133.6701304095688  102.14080246913608 132.98956566388802  C 101.3214135802471 132.30900091820723  98.13490123456798 130.86280083363548  100.6841111111111 129.0763183762234  C 103.32436419753103 127.28983591881124  102.59601851851866 125.75856524102943  101.95871604938287 124.73771812250816  C 101.32141358024688 123.71687100398704  99.86472222222233 123.37658863114665  101.50350000000009 121.6751767669446  C 103.05123456790145 120.05883549595278  102.59601851851866 119.46334134348193  101.0482839506175 119.46334134348193  C 99.50054938271614 119.46334134348193  97.67968518518519 119.12305897064158  99.86472222222233 118.01714125891029  C 101.95871604938287 116.91122354717898  103.87062345679021 113.67854100519514  101.50350000000009 114.69938812371636  C 99.13637654320995 115.72023524223758  98.40803086419757 115.72023524223758  98.40803086419757 114.0188233780356  C 98.40803086419757 112.31741151383356  98.86324691358016 110.53092905642139  97.31551234567921 110.53092905642139  C 95.76777777777785 110.53092905642139  94.67525925925928 110.956282022472  95.49464814814826 111.63684676815275  C 96.31403703703702 112.31741151383356  98.59011728395056 117.59178829285977  96.95133950617301 117.59178829285977  C 95.31256172839505 117.59178829285977  94.58421604938289 118.52756481817092  95.85882098765424 120.1439060891628  C 97.04238271604919 121.76024736015465  97.31551234567921 123.6318004107769  97.133425925926 125.67349464781934  C 96.9513395061728 127.63011829165163  96.76925308641981 128.2256124441223  95.67673456790104 128.99124778301316  C 94.58421604938268 129.75688312190405  94.76630246913567 132.73435388425762  93.94691358024689 132.4791421046273  C 93.1275246913579 132.22393032499699  92.94543827160491 129.5016713422738  92.03500617283956 129.9270243083243  C 91.12457407407419 130.35237727437485  90.0320555555556 133.24477744351822  87.66493209876569 133.07463625709804  C 85.29780864197512 132.90449507067783  83.4769444444444 133.15970685030817  83.4769444444444 130.18223608795466  C 83.4769444444444 127.28983591881124  84.93363580246914 118.2723530385406  83.93216049382718 118.35742363175073  C 82.93068518518521 118.52756481817092  83.65903086419759 119.29320015706176  82.65755555555562 119.37827075027185  C 81.65608024691343 119.46334134348204  81.20086419753085 120.05883549595278  81.83816666666664 120.5692590552133  C 82.38442592592602 121.07968261447394  81.83816666666664 123.716871003987  81.83816666666664 125.2481416817688  C 81.83816666666664 126.7794123595506  81.29190740740745 128.73603600338294  82.02025308641984 129.9270243083243  C 82.74859876543222 131.11801261326573  81.83816666666664 133.3298480367283  81.20086419753085 132.3090009182071  C 80.5635617283953 131.28815379968597  79.7441728395061 130.01209490153443  78.65165432098773 129.41660074906378  C 77.55913580246937 128.82110659659304  78.46956790123474 127.63011829165163  78.83374074074072 126.43912998671024  C 79.19791358024713 125.2481416817688  79.65312962962992 122.69602388546588  78.37852469135814 121.76024736015475  C 77.10391975308679 120.82447083484357  75.19201234567903 119.8036237163224  76.01140123456801 121.16475320768402  C 76.830790123457 122.52588269904565  78.28748148148175 124.65264752929816  76.46661728395081 124.14222397003753  C 74.64575308641984 123.6318004107769  71.36819753086435 122.69602388546588  70.73089506172856 123.54672981756693  C 70.09359259259278 124.39743574966786  69.54733333333361 125.33321227497899  70.45776543209898 126.09884761386984  C 71.36819753086456 126.86448295276074  72.46071604938312 127.88533007128201  71.36819753086456 129.0763183762234  C 70.27567901234599 130.2673066811647  69.63837654321 129.0763183762234  70.0025493827164 131.28815379968597  C 70.36672222222238 133.49998922314865  70.91298148148176 134.52083634166982  69.72941975308682 134.60590693487987  C 68.54585802469184 134.69097752808997  65.54143209876572 137.24309532439298  65.63247530864233 135.2014010873506  C 65.72351851851872 133.15970685030817  65.54143209876572 132.0537891385769  64.99517283950632 133.32984803672835  C 64.44891358024715 134.60590693487987  64.08474074074097 135.96703642624146  63.53848148148178 136.8177423583425  C 62.99222222222239 137.66844829044348  63.174308641975585 137.41323651081322  62.081790123456805 136.4774599855021  C 60.98927160493866 135.45661286698095  59.077364197531104 134.26562456203953  58.07588888888913 135.71182464661123  C 57.34754320987675 136.73267176513247  57.16545679012376 137.24309532439304  57.71171604938294 137.49830710402333  C 56.61919753086458 137.49830710402333  53.88790123456826 137.66844829044348  52.5222530864201 138.68929540896477  C 50.883475308642346 139.9653543071163  45.2387962962965 140.47577786637694  41.323938271605215 140.64591905279704  C 37.40908024691372 140.7309896460072  37.40908024691372 135.96703642624158  37.135950617284344 133.58505981635878  C 36.86282098765433 131.20308320647592  34.58674074074101 131.11801261326585  32.492746913580255 131.20308320647592  C 30.30770987654353 131.28815379968606  29.397277777777955 129.0763183762234  29.761450617283934 127.80025947807187  C 30.125623456790333 126.52420057992043  31.036055555555706 124.3974357496679  30.398753086419713 121.76024736015479  C 29.761450617283934 119.1230589706417  34.31361111111121 114.86952931013664  36.58969135802474 112.74276447988406  C 38.86577160493827 110.61599964963158  36.13447530864216 107.12810532801748  35.315086419753385 105.42669346381545  C 34.495697530864405 103.64021100640333  36.13447530864216 102.95964626072258  36.22551851851876 97.7703400749064  C 36.31656172839515 92.49596329588023  34.131524691358216 93.26159863477112  31.218141975308907 92.32582210945999  C 28.21371604938299 91.39004558414892  26.30180864197565 92.49596329588023  24.663030864197687 90.79455143167824  C 23.02425308642004 89.00806897426614  23.661555555555715 87.64693948290456  23.75259876543242 85.77538643228229  C 23.843641975308916 83.90383338166014  23.661555555555715 82.20242151745805  22.02277777777796 81.94720973782779  C 20.384000000000107 81.77706855140755  18.83626543209906 81.01143321251672  16.74227160493852 79.82044490757526  C 14.64827777777787 78.62945660263388  15.558709876543556 76.75790355201165  16.104969135802737 75.39677406065009  C 16.651228395062024 74.03564456928841  16.196012345679232 70.37760906125418  15.103493827160765 69.01647956989257  C 14.010975308642195 67.65535007853093  17.01540123456811 64.42266753654715  19.47356790123484 63.31674982481585  C 21.931734567901465 62.21083211308454  22.295907407407555 61.3601261809835  22.295907407407555 60.1691378760421  C 22.295907407407555 58.97814957110076  21.749648148148268 55.9156082155371  19.200438271605144 55.320114063066434  C 16.651228395062024 54.724619910595706  15.467666666666851 53.27841982602404  13.82888888888931 51.832219741452334  C 12.281154320987948 50.38601965688062  11.552808641975567 48.85474897909882  12.372197530864442 48.68460779267864  C 13.19158641975332 48.51446660625841  14.83036419753107 45.79220762353516  14.83036419753107 44.3460075389635  C 14.83036419753107 42.81473686118175  15.376623456790357 43.069948640812015  17.01540123456811 42.7296662679716  C 18.65417901234586 42.30431330192111  20.019827160494025 38.73134838709687  19.56461111111123 37.115007116104984  C 19.109395061728755 35.413595251903004  16.83331481481491 36.17923059079391  13.37367283950652 36.34937177721408  C 9.914030864197711 36.519512963634256  8.912555555555635 34.222606946961555  8.548382716049549 32.7764068623899  C 8.184209876543463 31.330206777818184  7.546907407407578 28.607947795094933  5.36187037037054 27.161747710523272  C 3.541006172839798 25.970759405581877  1.0828395061730653 20.27102966050516  0.26345061728418945 18.229335423462725  C 5.5439567901236355 15.507076440739578  11.18863580246948 12.104252712335516  12.463240740740833 10.82819381418398  C 14.64827777777787 8.616358390721365  23.206339506173137 4.788181696266912  27.303283950617622 2.5763462728042974  C 31.400228395061895 0.3645108493416828  36.13447530864216 -0.14591270991890035  40.504549382716235 1.3853579678629018  C 44.78358024691371 2.9166286456447037  59.623623456790284 9.126781949982  64.44891358024715 15.677217627159756  C 69.27420370370359 22.22765330433746  75.10096913580264 31.245136184608146  79.7441728395061 35.15838347227274  C 84.38737654320998 39.07163075993733  84.66050617283958 41.19839559018981  86.4813703703703 41.368536776610036  C 88.30223456790127 41.62374855624035  90.12309876543199 39.83726609882823  91.67083333333336 39.75219550561815  C 93.21856790123472 39.667124912408006  94.03795679012349 42.559525081551485  97.04238271604962 41.6237485562403  C 100.04680864197512 40.773042624139364  101.59454320987648 40.34768965808887  100.77515432098791 41.87896033587062  C 99.95576543209893 43.41023101365247  97.5886419753088 44.09079575933329  100.8661975308643 45.02657228464437  C 104.1437530864198 45.962348809955444  108.14965432098789 45.19671347106454  110.42573456790144 47.49361948773724  C 112.70181481481497 49.79052550440995  115.2510246913583 49.28010194514936  117.16293209876544 49.19503135193922  C 119.07483950617276 49.10996075872919  121.80613580246931 50.47109025009076  124.44638888888903 49.87559609762009  C 127.08664197530875 49.28010194514936  128.99854938271588 48.854748979098865  130.63732716049404 47.32347830131707  C 132.185061728395 45.87727821674535  132.9134074074076 46.13248999637567  133.91488271604933 47.74883126736751  Z " stroke-width="1.0033333333333334" stroke-dasharray="0" stroke="rgba(0, 255, 255, 1)" fill="none" transform="matrix(1 0 0 1 912 346 )" class="stroke" mask="url(#Clip1738)" />
    <path d="M 120.44048765432093 142.68761328983933  C 119.80318518518536 142.09211913736863  118.89275308641977 141.496624984898  119.53005555555578 141.07127201884745  C 120.16735802469134 140.64591905279696  121.16883333333331 137.49830710402327  120.53153086419753 136.9878835447626  C 119.89422839506175 136.47745998550198  116.34354320987666 130.69265964721518  115.88832716049366 130.52251846079497  C 115.34206790123447 130.3523772743748  115.15998148148148 131.0329420200556  114.15850617283952 131.88364795215665  C 113.15703086419755 132.73435388425762  107.7854814814815 135.1163304941404  108.14965432098768 136.22224820587172  C 108.60487037037048 137.32816591760303  109.06008641975306 138.34901303612432  110.24364814814803 138.5191542225444  C 111.3361666666668 138.6892954089646  113.88537654320993 139.71014252748583  113.52120370370373 140.90113083242724  C 113.24807407407415 142.09211913736863  110.78990740740741 143.62338981515043  112.88390123456774 143.53831922194038  C 114.97789506172808 143.45324862873022  115.52415432098768 144.13381337441106  115.61519753086407 145.2397310861423  C 115.70624074074088 146.43071939108376  116.25250000000005 146.26057820466357  116.07041358024685 147.36649591639488  C 115.88832716049366 148.4724136281262  116.07041358024685 148.98283718738676  116.98084567901223 147.79184888244538  C 117.8912777777776 146.600860577504  118.89275308641977 143.62338981515052  120.34944444444454 143.7084604083605  C 121.8061358024691 143.79353100157064  121.07779012345672 143.36817803552017  120.44048765432093 142.68761328983933  Z " stroke-width="1.0033333333333334" stroke-dasharray="0" stroke="rgba(0, 255, 255, 1)" fill="none" transform="matrix(1 0 0 1 912 346 )" class="stroke" mask="url(#Clip1738)" />
    <path d="M 109.33321604938266 138.77436600217465  C 109.42425925925905 138.17887184970402  107.23922222222231 135.54168346019085  106.78400617283954 135.9670364262414  C 106.32879012345674 136.39238939229185  104.96314197530857 137.5833776972333  104.0527098765432 136.8177423583424  C 103.14227777777784 136.05210701945148  101.41245679012327 135.2014010873506  100.4109814814815 135.1163304941404  C 99.40950617283954 135.1163304941404  97.4065555555556 134.52083634166968  97.58864197530859 135.45661286698078  C 97.77072839506178 136.39238939229185  98.13490123456798 137.4983071040231  98.04385802469137 138.34901303612415  C 97.95281481481477 139.1997189682252  98.40803086419736 139.02957778180502  99.68263580246914 138.85943659538478  C 100.95724074074047 138.6892954089646  102.41393209876546 138.85943659538478  102.68706172839505 139.9653543071161  C 102.96019135802443 141.07127201884745  101.77662962962945 142.68761328983933  101.04828395061729 142.68761328983933  C 100.22889506172831 142.68761328983933  99.77367901234553 143.11296625588983  100.41098148148129 144.13381337441106  C 101.04828395061729 145.1546604929322  101.41245679012327 146.43071939108376  102.50497530864185 145.92029583182313  C 103.50645061728402 145.4098722725625  104.2347962962962 144.98451930651203  104.2347962962962 144.98451930651203  C 104.2347962962962 144.4740957472514  104.59896913580216 139.9653543071161  105.69148765432074 140.0504249003262  C 106.78400617283954 140.13549549353633  109.24217283950584 139.36986015464544  109.33321604938266 138.77436600217465  Z " stroke-width="1.0033333333333334" stroke-dasharray="0" stroke="rgba(0, 255, 255, 1)" fill="none" transform="matrix(1 0 0 1 912 346 )" class="stroke" mask="url(#Clip1738)" />
    <path d="M 146.02362962962982 99.13146956626797  C 145.20424074074063 98.19569304095684  144.38485185185186 98.28076363416697  144.11172222222226 99.13146956626797  C 143.83859259259268 99.98217549836902  141.28938271604935 102.10894032862147  140.92520987654333 102.36415210825176  C 140.56103703703718 102.61936388788212  141.47146913580252 102.95964626072247  141.83564197530873 103.12978744714265  C 142.1998148148149 103.29992863356289  142.6550308641975 103.2148580403528  142.92816049382708 102.95964626072247  C 143.2012901234567 102.70443448109215  146.9340617283952 100.15231668478913  146.02362962962982 99.13146956626797  Z " stroke-width="1.0033333333333334" stroke-dasharray="0" stroke="rgba(0, 255, 255, 1)" fill="none" transform="matrix(1 0 0 1 912 346 )" class="stroke" mask="url(#Clip1738)" />
    <path d="M 130.54628395061724 132.90449507067783  C 130.36419753086426 131.62843617252628  129.0895925925927 131.4582949861061  128.5433333333331 131.54336557931617  C 127.99707407407412 131.62843617252628  127.54185802469132 130.77773024042534  127.81498765432113 130.18223608795455  C 128.1791604938271 129.5016713422738  126.81351234567894 127.20476532560104  125.90308024691359 127.20476532560104  C 125.08369135802481 127.20476532560104  125.08369135802481 127.37490651202127  125.1747345679012 128.4808242237525  C 125.1747345679012 129.5016713422738  125.7209938271606 131.71350676573635  125.2657777777778 132.1388597317869  C 124.90160493827182 132.5642126978374  124.81056172839502 132.90449507067783  124.08221604938284 133.15970685030817  C 123.35387037037046 133.41491862993846  122.2613518518519 134.60590693487978  124.08221604938284 134.4357657484596  C 125.90308024691379 134.26562456203942  126.54038271604956 133.07463625709798  128.45229012345692 133.41491862993846  C 130.36419753086426 133.7552010027788  130.72837037037044 134.09548337561924  130.54628395061724 132.90449507067783  Z " stroke-width="1.0033333333333334" stroke-dasharray="0" stroke="rgba(0, 255, 255, 1)" fill="none" transform="matrix(1 0 0 1 912 346 )" class="stroke" mask="url(#Clip1738)" />
  </g>
  <style>svg { filter: drop-shadow(0px 0px 5px rgba(255, 255, 0, 0.30980392156862746)); }</style>
</svg>