<?xml version="1.0" encoding="utf-8"?>
<svg version="1.1" xmlns:xlink="http://www.w3.org/1999/xlink" width="35px" height="38px" xmlns="http://www.w3.org/2000/svg">
  <defs>
    <linearGradient gradientUnits="userSpaceOnUse" x1="-0.013850392140814039" y1="0.016467315870766212" x2="27.013850392140814" y2="29.98353268412923" id="LinearGradient2281">
      <stop id="Stop2282" stop-color="#0fb5d0" offset="0" />
      <stop id="Stop2283" stop-color="#25c0f4" offset="0.48" />
      <stop id="Stop2284" stop-color="#0fb1d0" offset="0.97" />
      <stop id="Stop2285" stop-color="#0fb1d0" offset="1" />
    </linearGradient>
    <pattern id="BGPattern" patternUnits="userSpaceOnUse" alignment="0 0" imageRepeat="None" />
    <mask fill="white" id="Clip2286">
      <path d="M 27 2  L 27 0  L 10.451612903225806 0  L 0 12  L 0 30  L 2 30  L 2 12.999999999999998  L 11.32258064516129 2  L 27 2  Z " fill-rule="evenodd" />
    </mask>
  </defs>
  <g transform="matrix(1 0 0 1 4 2 )">
    <path d="M 27 2  L 27 0  L 10.451612903225806 0  L 0 12  L 0 30  L 2 30  L 2 12.999999999999998  L 11.32258064516129 2  L 27 2  Z " fill-rule="nonzero" fill="url(#LinearGradient2281)" stroke="none" class="fill" />
    <path d="M 27 2  L 27 0  L 10.451612903225806 0  L 0 12  L 0 30  L 2 30  L 2 12.999999999999998  L 11.32258064516129 2  L 27 2  Z " stroke-width="0" stroke-dasharray="0" stroke="rgba(121, 121, 121, 1)" fill="none" class="stroke" mask="url(#Clip2286)" />
  </g>
  <style>svg { filter: drop-shadow(0px 2px 2px rgba(106, 227, 252, 0.6862745098039216)); }</style>
</svg>