<?xml version="1.0" encoding="utf-8"?>
<svg version="1.1" xmlns:xlink="http://www.w3.org/1999/xlink" width="35px" height="35px" xmlns="http://www.w3.org/2000/svg">
  <defs>
    <pattern id="BGPattern" patternUnits="userSpaceOnUse" alignment="0 0" imageRepeat="None" />
    <mask fill="white" id="Clip2391">
      <path d="M 19.202822085889586 0.29698094930574825  C 18.858762781186105 0.19288958096802844  17.726145194273997 0.2268324184695416  17.32224948875255 0.2268324184695416  C 17.32224948875255 1.8560886185382515  17.497484662576657 4.268292936973353  16.59139059304705 5.657686418698631  C 16.377689161554187 5.98806337037928  15.354059304703428 6.947514243753062  15.01427402862979 7.2665769162665015  C 14.603967280163552 7.651262407949389  13.975685071574667 8.171719249638045  13.47776073619629 8.404793400481196  C 12.127167689161533 9.029341610507572  10.76588957055214 8.603924713822948  9.908946830265862 9.180952951347308  C 9.526421267893628 9.438918516358171  9.37896728016358 9.85528398970905  8.968660531697285 10.097409563886004  C 8.586134969325165 10.323695147228875  8.224979550102256 10.233180913891658  7.70782208588956 10.617866405574603  C 7.126554192229 11.04780901392604  6.776083844580727 11.692722926453314  5.784509202453984 12.217705479808785  C 5.017321063394625 12.622756673992512  4.7031799591002095 12.310482568979353  4.117638036809806 12.575236701490553  C 4.117638036809806 12.575236701490553  2.8354294478527553 13.428333350693151  2.8354294478527553 13.428333350693151  C 2.0874744376278276 13.853750247377775  1.2369427402862843 14.089087254054391  0.40137014314927427 14.21354432489295  C 0.40137014314927427 14.801886841584519  0.43342535787317815 16.175440332475716  0.7326073619632277 16.64611434582895  C 0.971952965235144 17.019485558344684  1.4207259713701343 17.48789671586445  1.700674846625752 17.97214786421824  C 2.0468711656441263 18.574067515910315  1.839580777096114 19.114890060099754  2.230654396727976 19.872946764298433  C 2.7435378323108304 20.868603331007137  3.514999999999977 21.28949451602483  3.7842638036809597 21.678705719374648  C 4.297147239263758 22.41639672107243  3.5983435582821603 23.231024821106814  4.3933128834355815 24.353401314487485  C 4.3933128834355815 24.353401314487485  6.269611451942721 26.525742914579155  6.269611451942721 26.525742914579155  C 6.568793456032658 26.894588415428018  6.955593047034734 27.679799389627817  7.244089979550092 27.887982126303314  C 7.244089979550092 27.887982126303314  8.861809815950883 28.431067526326217  8.861809815950883 28.431067526326217  C 8.861809815950883 28.431067526326217  10.785122699386518 29.424461237201456  10.785122699386518 29.424461237201456  C 11.261676891615512 29.5783354338746  12.396431492842515 29.49234691220431  12.964877300613491 29.519501182205488  C 12.964877300613491 29.519501182205488  14.244948875255593 29.691478225546064  14.244948875255593 29.691478225546064  C 14.890327198363961 29.64169539721064  15.717351738241286 28.879112981345145  16.531554192229027 28.854221567177433  C 17.112822085889587 28.836118720509944  17.634253578732125 29.496872623871184  18.177055214723936 29.625855406376616  C 18.623691206543977 29.7322096305478  19.561840490797543 29.19591279802512  19.972147239263784 28.969627214682305  C 19.972147239263784 28.969627214682305  19.972147239263784 30.193832220567288  19.972147239263784 30.193832220567288  C 19.987106339468262 31.06276886060391  20.572648261758665 32.40464236982723  21.38257668711656 32.757647879842125  C 21.760828220858897 32.906996364848396  22.04718813905925 32.67618506983865  22.53656441717789 32.757647879842125  C 22.53656441717789 32.757647879842125  23.562331288343596 33.11517910152378  23.562331288343596 33.11517910152378  C 23.908527607361968 33.167224785692724  24.81889570552142 32.965830616517565  25.22920245398766 32.90925922068186  C 25.22920245398766 32.90925922068186  25.22920245398766 34.53851542075057  25.22920245398766 34.53851542075057  C 25.22920245398766 34.53851542075057  26.89393660531694 34.613189663253706  26.89393660531694 34.613189663253706  C 26.89393660531694 34.613189663253706  28.68902862985685 34.348435530742506  28.68902862985685 34.348435530742506  C 28.68902862985685 34.348435530742506  29.714795501022504 34.94582947076776  29.714795501022504 34.94582947076776  C 29.99901840490796 33.96827575072649  30.159294478527592 33.24868759569614  31.009826175869133 32.56983084566747  C 31.49279141104298 32.18288249815117  31.900961145194266 32.3096024248232  32.16167689161551 31.915865509806565  C 32.584805725971336 31.227957336444263  32.319815950920194 29.476506921370344  32.16167689161551 28.698084514670768  C 32.125347648261766 28.419753247159008  32.046278118609365 27.89024498213672  31.89668711656437 27.668485110460722  C 31.420132924335373 26.966999802097746  29.84729038854807 27.084668305436086  29.07369120654392 26.9443712437635  C 28.72108384458075 26.881011280427458  28.268036809815975 26.831228452092034  28.052198364008166 26.485011509577475  C 27.8812372188139 26.21120595373253  27.80857873210635 25.249492224525287  27.79148261758687 24.896486714510388  C 26.269928425357843 24.529904069494933  26.39173824130878 24.321721332819493  25.74208588957057 22.995687814430195  C 26.56056237218815 22.995687814430195  27.883374233128794 22.986636391096454  28.154775051124727 21.886888456050087  C 28.24666666666665 21.416214442696912  27.95816973415129 20.98400897851195  28.154775051124727 20.416032164321336  C 28.445408997955035 19.67381545095668  28.936922290388562 19.433952732613307  28.94547034764825 17.33854823085818  C 28.94760736196314 17.003645567510716  28.90700408997955 16.45150874415407  29.077965235173817 16.168651764975436  C 29.49682004089974 15.47169216827939  30.420010224948832 15.45811503327883  30.98631901840486 15.91294905579798  C 30.98631901840486 15.91294905579798  32.66387525562367 17.836376514212475  32.66387525562367 17.836376514212475  C 32.66387525562367 17.836376514212475  34.843629856850704 16.11434322497314  34.843629856850704 16.11434322497314  C 34.843629856850704 16.11434322497314  34.1127709611452 14.299532846563238  34.1127709611452 14.299532846563238  C 34.1127709611452 14.299532846563238  32.44589979550103 13.066276417344568  32.44589979550103 13.066276417344568  C 32.44589979550103 13.066276417344568  31.621012269938596 11.67688293561929  31.621012269938596 11.67688293561929  C 31.621012269938596 11.67688293561929  29.714795501022504 11.876014248961042  29.714795501022504 11.876014248961042  C 29.714795501022504 11.876014248961042  27.919703476482596 11.876014248961042  27.919703476482596 11.876014248961042  C 27.76370143149281 10.82152343058317  27.349120654396724 9.742141198037642  26.25496932515337 9.395924255523028  C 25.904498977505092 9.285044319685028  24.526124744376276 9.325775724686707  24.075214723926393 9.325775724686707  C 24.256860940695294 8.748747487162404  24.746237218813874 7.04029133292363  25.062515337423292 6.648817273740462  C 25.4984662576687 6.101206162050687  25.88312883435588 6.427057402064406  26.51782208588956 5.519652212859455  C 27.088404907975484 4.709549824491943  27.000787321063346 4.046533065297297  27.46238241308792 3.5396533586092573  C 28.103486707566443 2.8313794827460583  29.13139059304699 2.949047986084338  29.586574642126774 1.3130032185152913  C 28.250940695296496 1.611700188527891  28.238118609406964 2.1660998677180032  27.53504089979547 2.1955169935525305  C 27.195255623721888 2.209094128553147  26.744345603272002 2.0914256252148107  26.639631901840435 1.7022144218651079  C 26.639631901840435 1.7022144218651079  26.639631901840435 0.769917818492388  26.639631901840435 0.769917818492388  C 26.639631901840435 0.769917818492388  26.126748466257638 1.3130032185152913  26.126748466257638 1.3130032185152913  C 26.126748466257638 1.3130032185152913  25.100981595092044 0.498375118480908  25.100981595092044 0.498375118480908  C 24.49406952965237 1.8855057443728356  24.184202453987744 1.2519061110127723  23.049447852760686 1.33789463268306  C 21.74586912065442 1.4329345776870355  22.243793456032684 1.1727061568427644  21.254355828220834 0.8581691959960835  C 21.254355828220834 0.8581691959960835  20.228588957055184 0.7337121251575809  20.228588957055184 0.7337121251575809  C 19.794775051124724 0.6409350359869563  19.585347648261706 0.4101237409772125  19.202822085889586 0.29698094930574825  Z " fill-rule="evenodd" />
    </mask>
  </defs>
  <g transform="matrix(1 0 0 1 -210 -124 )">
    <path d="M 19.202822085889586 0.29698094930574825  C 18.858762781186105 0.19288958096802844  17.726145194273997 0.2268324184695416  17.32224948875255 0.2268324184695416  C 17.32224948875255 1.8560886185382515  17.497484662576657 4.268292936973353  16.59139059304705 5.657686418698631  C 16.377689161554187 5.98806337037928  15.354059304703428 6.947514243753062  15.01427402862979 7.2665769162665015  C 14.603967280163552 7.651262407949389  13.975685071574667 8.171719249638045  13.47776073619629 8.404793400481196  C 12.127167689161533 9.029341610507572  10.76588957055214 8.603924713822948  9.908946830265862 9.180952951347308  C 9.526421267893628 9.438918516358171  9.37896728016358 9.85528398970905  8.968660531697285 10.097409563886004  C 8.586134969325165 10.323695147228875  8.224979550102256 10.233180913891658  7.70782208588956 10.617866405574603  C 7.126554192229 11.04780901392604  6.776083844580727 11.692722926453314  5.784509202453984 12.217705479808785  C 5.017321063394625 12.622756673992512  4.7031799591002095 12.310482568979353  4.117638036809806 12.575236701490553  C 4.117638036809806 12.575236701490553  2.8354294478527553 13.428333350693151  2.8354294478527553 13.428333350693151  C 2.0874744376278276 13.853750247377775  1.2369427402862843 14.089087254054391  0.40137014314927427 14.21354432489295  C 0.40137014314927427 14.801886841584519  0.43342535787317815 16.175440332475716  0.7326073619632277 16.64611434582895  C 0.971952965235144 17.019485558344684  1.4207259713701343 17.48789671586445  1.700674846625752 17.97214786421824  C 2.0468711656441263 18.574067515910315  1.839580777096114 19.114890060099754  2.230654396727976 19.872946764298433  C 2.7435378323108304 20.868603331007137  3.514999999999977 21.28949451602483  3.7842638036809597 21.678705719374648  C 4.297147239263758 22.41639672107243  3.5983435582821603 23.231024821106814  4.3933128834355815 24.353401314487485  C 4.3933128834355815 24.353401314487485  6.269611451942721 26.525742914579155  6.269611451942721 26.525742914579155  C 6.568793456032658 26.894588415428018  6.955593047034734 27.679799389627817  7.244089979550092 27.887982126303314  C 7.244089979550092 27.887982126303314  8.861809815950883 28.431067526326217  8.861809815950883 28.431067526326217  C 8.861809815950883 28.431067526326217  10.785122699386518 29.424461237201456  10.785122699386518 29.424461237201456  C 11.261676891615512 29.5783354338746  12.396431492842515 29.49234691220431  12.964877300613491 29.519501182205488  C 12.964877300613491 29.519501182205488  14.244948875255593 29.691478225546064  14.244948875255593 29.691478225546064  C 14.890327198363961 29.64169539721064  15.717351738241286 28.879112981345145  16.531554192229027 28.854221567177433  C 17.112822085889587 28.836118720509944  17.634253578732125 29.496872623871184  18.177055214723936 29.625855406376616  C 18.623691206543977 29.7322096305478  19.561840490797543 29.19591279802512  19.972147239263784 28.969627214682305  C 19.972147239263784 28.969627214682305  19.972147239263784 30.193832220567288  19.972147239263784 30.193832220567288  C 19.987106339468262 31.06276886060391  20.572648261758665 32.40464236982723  21.38257668711656 32.757647879842125  C 21.760828220858897 32.906996364848396  22.04718813905925 32.67618506983865  22.53656441717789 32.757647879842125  C 22.53656441717789 32.757647879842125  23.562331288343596 33.11517910152378  23.562331288343596 33.11517910152378  C 23.908527607361968 33.167224785692724  24.81889570552142 32.965830616517565  25.22920245398766 32.90925922068186  C 25.22920245398766 32.90925922068186  25.22920245398766 34.53851542075057  25.22920245398766 34.53851542075057  C 25.22920245398766 34.53851542075057  26.89393660531694 34.613189663253706  26.89393660531694 34.613189663253706  C 26.89393660531694 34.613189663253706  28.68902862985685 34.348435530742506  28.68902862985685 34.348435530742506  C 28.68902862985685 34.348435530742506  29.714795501022504 34.94582947076776  29.714795501022504 34.94582947076776  C 29.99901840490796 33.96827575072649  30.159294478527592 33.24868759569614  31.009826175869133 32.56983084566747  C 31.49279141104298 32.18288249815117  31.900961145194266 32.3096024248232  32.16167689161551 31.915865509806565  C 32.584805725971336 31.227957336444263  32.319815950920194 29.476506921370344  32.16167689161551 28.698084514670768  C 32.125347648261766 28.419753247159008  32.046278118609365 27.89024498213672  31.89668711656437 27.668485110460722  C 31.420132924335373 26.966999802097746  29.84729038854807 27.084668305436086  29.07369120654392 26.9443712437635  C 28.72108384458075 26.881011280427458  28.268036809815975 26.831228452092034  28.052198364008166 26.485011509577475  C 27.8812372188139 26.21120595373253  27.80857873210635 25.249492224525287  27.79148261758687 24.896486714510388  C 26.269928425357843 24.529904069494933  26.39173824130878 24.321721332819493  25.74208588957057 22.995687814430195  C 26.56056237218815 22.995687814430195  27.883374233128794 22.986636391096454  28.154775051124727 21.886888456050087  C 28.24666666666665 21.416214442696912  27.95816973415129 20.98400897851195  28.154775051124727 20.416032164321336  C 28.445408997955035 19.67381545095668  28.936922290388562 19.433952732613307  28.94547034764825 17.33854823085818  C 28.94760736196314 17.003645567510716  28.90700408997955 16.45150874415407  29.077965235173817 16.168651764975436  C 29.49682004089974 15.47169216827939  30.420010224948832 15.45811503327883  30.98631901840486 15.91294905579798  C 30.98631901840486 15.91294905579798  32.66387525562367 17.836376514212475  32.66387525562367 17.836376514212475  C 32.66387525562367 17.836376514212475  34.843629856850704 16.11434322497314  34.843629856850704 16.11434322497314  C 34.843629856850704 16.11434322497314  34.1127709611452 14.299532846563238  34.1127709611452 14.299532846563238  C 34.1127709611452 14.299532846563238  32.44589979550103 13.066276417344568  32.44589979550103 13.066276417344568  C 32.44589979550103 13.066276417344568  31.621012269938596 11.67688293561929  31.621012269938596 11.67688293561929  C 31.621012269938596 11.67688293561929  29.714795501022504 11.876014248961042  29.714795501022504 11.876014248961042  C 29.714795501022504 11.876014248961042  27.919703476482596 11.876014248961042  27.919703476482596 11.876014248961042  C 27.76370143149281 10.82152343058317  27.349120654396724 9.742141198037642  26.25496932515337 9.395924255523028  C 25.904498977505092 9.285044319685028  24.526124744376276 9.325775724686707  24.075214723926393 9.325775724686707  C 24.256860940695294 8.748747487162404  24.746237218813874 7.04029133292363  25.062515337423292 6.648817273740462  C 25.4984662576687 6.101206162050687  25.88312883435588 6.427057402064406  26.51782208588956 5.519652212859455  C 27.088404907975484 4.709549824491943  27.000787321063346 4.046533065297297  27.46238241308792 3.5396533586092573  C 28.103486707566443 2.8313794827460583  29.13139059304699 2.949047986084338  29.586574642126774 1.3130032185152913  C 28.250940695296496 1.611700188527891  28.238118609406964 2.1660998677180032  27.53504089979547 2.1955169935525305  C 27.195255623721888 2.209094128553147  26.744345603272002 2.0914256252148107  26.639631901840435 1.7022144218651079  C 26.639631901840435 1.7022144218651079  26.639631901840435 0.769917818492388  26.639631901840435 0.769917818492388  C 26.639631901840435 0.769917818492388  26.126748466257638 1.3130032185152913  26.126748466257638 1.3130032185152913  C 26.126748466257638 1.3130032185152913  25.100981595092044 0.498375118480908  25.100981595092044 0.498375118480908  C 24.49406952965237 1.8855057443728356  24.184202453987744 1.2519061110127723  23.049447852760686 1.33789463268306  C 21.74586912065442 1.4329345776870355  22.243793456032684 1.1727061568427644  21.254355828220834 0.8581691959960835  C 21.254355828220834 0.8581691959960835  20.228588957055184 0.7337121251575809  20.228588957055184 0.7337121251575809  C 19.794775051124724 0.6409350359869563  19.585347648261706 0.4101237409772125  19.202822085889586 0.29698094930574825  Z " fill-rule="nonzero" fill="rgba(129, 211, 248, 0.996078431372549)" stroke="none" transform="matrix(1 0 0 1 210 124 )" class="fill" />
    <path d="M 19.202822085889586 0.29698094930574825  C 18.858762781186105 0.19288958096802844  17.726145194273997 0.2268324184695416  17.32224948875255 0.2268324184695416  C 17.32224948875255 1.8560886185382515  17.497484662576657 4.268292936973353  16.59139059304705 5.657686418698631  C 16.377689161554187 5.98806337037928  15.354059304703428 6.947514243753062  15.01427402862979 7.2665769162665015  C 14.603967280163552 7.651262407949389  13.975685071574667 8.171719249638045  13.47776073619629 8.404793400481196  C 12.127167689161533 9.029341610507572  10.76588957055214 8.603924713822948  9.908946830265862 9.180952951347308  C 9.526421267893628 9.438918516358171  9.37896728016358 9.85528398970905  8.968660531697285 10.097409563886004  C 8.586134969325165 10.323695147228875  8.224979550102256 10.233180913891658  7.70782208588956 10.617866405574603  C 7.126554192229 11.04780901392604  6.776083844580727 11.692722926453314  5.784509202453984 12.217705479808785  C 5.017321063394625 12.622756673992512  4.7031799591002095 12.310482568979353  4.117638036809806 12.575236701490553  C 4.117638036809806 12.575236701490553  2.8354294478527553 13.428333350693151  2.8354294478527553 13.428333350693151  C 2.0874744376278276 13.853750247377775  1.2369427402862843 14.089087254054391  0.40137014314927427 14.21354432489295  C 0.40137014314927427 14.801886841584519  0.43342535787317815 16.175440332475716  0.7326073619632277 16.64611434582895  C 0.971952965235144 17.019485558344684  1.4207259713701343 17.48789671586445  1.700674846625752 17.97214786421824  C 2.0468711656441263 18.574067515910315  1.839580777096114 19.114890060099754  2.230654396727976 19.872946764298433  C 2.7435378323108304 20.868603331007137  3.514999999999977 21.28949451602483  3.7842638036809597 21.678705719374648  C 4.297147239263758 22.41639672107243  3.5983435582821603 23.231024821106814  4.3933128834355815 24.353401314487485  C 4.3933128834355815 24.353401314487485  6.269611451942721 26.525742914579155  6.269611451942721 26.525742914579155  C 6.568793456032658 26.894588415428018  6.955593047034734 27.679799389627817  7.244089979550092 27.887982126303314  C 7.244089979550092 27.887982126303314  8.861809815950883 28.431067526326217  8.861809815950883 28.431067526326217  C 8.861809815950883 28.431067526326217  10.785122699386518 29.424461237201456  10.785122699386518 29.424461237201456  C 11.261676891615512 29.5783354338746  12.396431492842515 29.49234691220431  12.964877300613491 29.519501182205488  C 12.964877300613491 29.519501182205488  14.244948875255593 29.691478225546064  14.244948875255593 29.691478225546064  C 14.890327198363961 29.64169539721064  15.717351738241286 28.879112981345145  16.531554192229027 28.854221567177433  C 17.112822085889587 28.836118720509944  17.634253578732125 29.496872623871184  18.177055214723936 29.625855406376616  C 18.623691206543977 29.7322096305478  19.561840490797543 29.19591279802512  19.972147239263784 28.969627214682305  C 19.972147239263784 28.969627214682305  19.972147239263784 30.193832220567288  19.972147239263784 30.193832220567288  C 19.987106339468262 31.06276886060391  20.572648261758665 32.40464236982723  21.38257668711656 32.757647879842125  C 21.760828220858897 32.906996364848396  22.04718813905925 32.67618506983865  22.53656441717789 32.757647879842125  C 22.53656441717789 32.757647879842125  23.562331288343596 33.11517910152378  23.562331288343596 33.11517910152378  C 23.908527607361968 33.167224785692724  24.81889570552142 32.965830616517565  25.22920245398766 32.90925922068186  C 25.22920245398766 32.90925922068186  25.22920245398766 34.53851542075057  25.22920245398766 34.53851542075057  C 25.22920245398766 34.53851542075057  26.89393660531694 34.613189663253706  26.89393660531694 34.613189663253706  C 26.89393660531694 34.613189663253706  28.68902862985685 34.348435530742506  28.68902862985685 34.348435530742506  C 28.68902862985685 34.348435530742506  29.714795501022504 34.94582947076776  29.714795501022504 34.94582947076776  C 29.99901840490796 33.96827575072649  30.159294478527592 33.24868759569614  31.009826175869133 32.56983084566747  C 31.49279141104298 32.18288249815117  31.900961145194266 32.3096024248232  32.16167689161551 31.915865509806565  C 32.584805725971336 31.227957336444263  32.319815950920194 29.476506921370344  32.16167689161551 28.698084514670768  C 32.125347648261766 28.419753247159008  32.046278118609365 27.89024498213672  31.89668711656437 27.668485110460722  C 31.420132924335373 26.966999802097746  29.84729038854807 27.084668305436086  29.07369120654392 26.9443712437635  C 28.72108384458075 26.881011280427458  28.268036809815975 26.831228452092034  28.052198364008166 26.485011509577475  C 27.8812372188139 26.21120595373253  27.80857873210635 25.249492224525287  27.79148261758687 24.896486714510388  C 26.269928425357843 24.529904069494933  26.39173824130878 24.321721332819493  25.74208588957057 22.995687814430195  C 26.56056237218815 22.995687814430195  27.883374233128794 22.986636391096454  28.154775051124727 21.886888456050087  C 28.24666666666665 21.416214442696912  27.95816973415129 20.98400897851195  28.154775051124727 20.416032164321336  C 28.445408997955035 19.67381545095668  28.936922290388562 19.433952732613307  28.94547034764825 17.33854823085818  C 28.94760736196314 17.003645567510716  28.90700408997955 16.45150874415407  29.077965235173817 16.168651764975436  C 29.49682004089974 15.47169216827939  30.420010224948832 15.45811503327883  30.98631901840486 15.91294905579798  C 30.98631901840486 15.91294905579798  32.66387525562367 17.836376514212475  32.66387525562367 17.836376514212475  C 32.66387525562367 17.836376514212475  34.843629856850704 16.11434322497314  34.843629856850704 16.11434322497314  C 34.843629856850704 16.11434322497314  34.1127709611452 14.299532846563238  34.1127709611452 14.299532846563238  C 34.1127709611452 14.299532846563238  32.44589979550103 13.066276417344568  32.44589979550103 13.066276417344568  C 32.44589979550103 13.066276417344568  31.621012269938596 11.67688293561929  31.621012269938596 11.67688293561929  C 31.621012269938596 11.67688293561929  29.714795501022504 11.876014248961042  29.714795501022504 11.876014248961042  C 29.714795501022504 11.876014248961042  27.919703476482596 11.876014248961042  27.919703476482596 11.876014248961042  C 27.76370143149281 10.82152343058317  27.349120654396724 9.742141198037642  26.25496932515337 9.395924255523028  C 25.904498977505092 9.285044319685028  24.526124744376276 9.325775724686707  24.075214723926393 9.325775724686707  C 24.256860940695294 8.748747487162404  24.746237218813874 7.04029133292363  25.062515337423292 6.648817273740462  C 25.4984662576687 6.101206162050687  25.88312883435588 6.427057402064406  26.51782208588956 5.519652212859455  C 27.088404907975484 4.709549824491943  27.000787321063346 4.046533065297297  27.46238241308792 3.5396533586092573  C 28.103486707566443 2.8313794827460583  29.13139059304699 2.949047986084338  29.586574642126774 1.3130032185152913  C 28.250940695296496 1.611700188527891  28.238118609406964 2.1660998677180032  27.53504089979547 2.1955169935525305  C 27.195255623721888 2.209094128553147  26.744345603272002 2.0914256252148107  26.639631901840435 1.7022144218651079  C 26.639631901840435 1.7022144218651079  26.639631901840435 0.769917818492388  26.639631901840435 0.769917818492388  C 26.639631901840435 0.769917818492388  26.126748466257638 1.3130032185152913  26.126748466257638 1.3130032185152913  C 26.126748466257638 1.3130032185152913  25.100981595092044 0.498375118480908  25.100981595092044 0.498375118480908  C 24.49406952965237 1.8855057443728356  24.184202453987744 1.2519061110127723  23.049447852760686 1.33789463268306  C 21.74586912065442 1.4329345776870355  22.243793456032684 1.1727061568427644  21.254355828220834 0.8581691959960835  C 21.254355828220834 0.8581691959960835  20.228588957055184 0.7337121251575809  20.228588957055184 0.7337121251575809  C 19.794775051124724 0.6409350359869563  19.585347648261706 0.4101237409772125  19.202822085889586 0.29698094930574825  Z " stroke-width="0.38562664329535495" stroke-dasharray="0" stroke="rgba(0, 0, 0, 1)" fill="none" transform="matrix(1 0 0 1 210 124 )" class="stroke" mask="url(#Clip2391)" />
  </g>
</svg>