<?xml version="1.0" encoding="utf-8"?>
<svg version="1.1" xmlns:xlink="http://www.w3.org/1999/xlink" width="49px" height="66px" xmlns="http://www.w3.org/2000/svg">
  <defs>
    <pattern id="BGPattern" patternUnits="userSpaceOnUse" alignment="0 0" imageRepeat="None" />
    <mask fill="white" id="Clip1548">
      <path d="M 18.740128276631328 6.499696480464975  C 18.04249023982144 7.024016790442433  17.671232571109915 8.012489505973615  17.422367540434923 8.8376493380691  C 17.422367540434923 8.8376493380691  14.97451477969884 6.774749757830172  14.97451477969884 6.774749757830172  C 12.946876742889044 8.20588634162091  12.824484104852186 8.62276396512753  11.261938092582174 10.371930900871803  C 10.853962632459494 10.831785598966759  9.899300055772496 11.609670649015246  9.80954545454541 12.211349693251622  C 9.68715281650866 13.057998062641277  10.67853318460681 13.827287697772013  10.960036252091466 14.768485631255983  C 11.225220301171236 15.671004197610602  10.768287785833682 17.549102357119775  10.364392080312276 18.378559896674243  C 9.136385945342958 20.91420729738454  7.0924288901282795 20.308230545689288  5.754269380925821 23.277946399741605  C 5.3952509760179055 24.07731998708437  5.183103736753962 24.721976105908976  5.42788901282757 25.603006134969316  C 5.717551589514775 26.617265095253543  6.464146681539211 27.304898288666376  6.072490239821416 28.439493057797755  C 5.819545454545472 29.16150791088149  5.048471834913493 29.9522860833065  4.799606804238716 31.018117533096493  C 4.546662018962665 32.08824669034547  4.8934411600669705 33.7471617694543  4.469146681539296 34.800100096867986  C 4.163165086447206 35.54360348724568  2.7678890128276477 37.236900226025206  1.9927356385945005 39.44162415240555  C 1.5480423870607731 40.696554730384285  0.6912939208030895 46.92823054568941  0.5770607919686745 48.46680981595088  C 0.5403430005577351 48.97823700355182  0.5077049637479635 49.65297707458835  0.9279196876743622 50.009686793671335  C 1.3807724484104256 50.400778172425014  3.241140546569979 50.42226670971919  4.208042387060802 50.778976428802075  C 6.537582264361412 51.647113335486  7.4024902398214305 53.151310946076784  8.365312325711086 53.40057797868904  C 9.222060791968662 53.61976105908938  10.42558839933076 52.88485308362933  11.13138594534298 53.53380690991282  C 11.510803123257059 53.87762350661939  11.918778583379845 55.145447206974545  12.196201896263226 55.69125605424606  C 12.196201896263226 55.69125605424606  13.668993307306152 58.2698805295447  13.668993307306152 58.2698805295447  C 14.464545454545354 60.28550532773652  14.521662018962669 62.361298030351975  16.006692693809313 64.20071682273169  C 16.39018962632445 64.67776235066194  17.100066926938055 65.4599451081692  17.66715281650864 65.65763965127547  C 18.356631344115975 65.90260897642885  20.37203011712205 65.33531159186306  20.71064974902402 64.60899903132066  C 20.92279698828775 64.14484662576683  20.849361405465658 62.004588311268876  20.849361405465658 61.364229899903144  C 20.849361405465658 61.364229899903144  22.073287785833806 63.16926703261217  22.073287785833806 63.16926703261217  C 22.073287785833806 63.16926703261217  23.158502509760215 60.84850500484344  23.158502509760215 60.84850500484344  C 24.410987172336753 59.00908621246373  26.5773368655884 57.72836938973206  26.385588399330615 55.18412657410389  C 26.34887060791967 54.750058120761985  26.3162325711099 54.4578140135616  26.01025097601781 54.135485954149196  C 25.70018962632455 53.80026477236026  25.088226436140584 53.55529544720698  24.684330730619074 53.37049402647734  C 24.684330730619074 53.37049402647734  27.621754043502484 52.25738779463992  27.621754043502484 52.25738779463992  C 27.621754043502484 52.25738779463992  31.04466815393194 50.37928963513074  31.04466815393194 50.37928963513074  C 31.04466815393194 50.37928963513074  32.82344116006685 49.760419761059076  32.82344116006685 49.760419761059076  C 32.82344116006685 49.760419761059076  33.57819576129394 47.43536002583147  33.57819576129394 47.43536002583147  C 33.57819576129394 47.43536002583147  35.177459564975 44.34101065547302  35.177459564975 44.34101065547302  C 35.177459564975 44.34101065547302  34.96123257110989 41.24666128511458  34.96123257110989 41.24666128511458  C 36.8991160066926 42.10190506942209  36.81752091466817 42.13628672909257  38.63301171221413 40.988798837584774  C 38.63301171221413 40.988798837584774  37.16430005577247 38.66803680981594  37.16430005577247 38.66803680981594  C 39.75902398215275 37.6236938973199  39.15522030117122 36.61803035195353  42.30479085331836 36.60513722957701  C 42.239514779698816 35.749893445269606  42.0396068042387 34.88605424604455  42.13752091466812 34.026512754278265  C 42.24767428890126 33.033742331288316  42.7780423870608 31.38342266709724  42.7209258226437 30.50239263803679  C 42.631171221416615 29.217378107846347  41.65203011712218 28.443790765256733  41.856017847183466 27.15018082014854  C 42.2558337981037 24.580151759767553  42.459821528164994 25.826486922828533  41.08086447295032 23.277946399741605  C 41.08086447295032 23.277946399741605  42.54957612939208 22.762221504681897  42.54957612939208 22.762221504681897  C 42.54957612939208 22.762221504681897  40.5912939208031 22.246496609622195  40.5912939208031 22.246496609622195  C 40.5912939208031 22.246496609622195  40.5912939208031 19.41000968679365  40.5912939208031 19.41000968679365  C 42.44758226436138 20.12342912495964  43.13298103736766 19.930032289312233  44.99742889012827 19.41000968679365  C 44.99742889012827 19.41000968679365  44.26307306190744 21.98863416209229  44.26307306190744 21.98863416209229  C 45.07494422755164 21.34827575072656  46.39270496374793 20.04177268324184  46.437582264361424 18.89428479173395  C 46.462060791968646 18.210949305779774  45.97249023982154 17.557697772037418  46.12752091466817 16.83138521149491  C 46.24583379810364 16.28987407168227  46.853717233686545 15.589347755892806  47.1352203011712 15.026348078785995  C 47.494238706079116 14.30003551824338  47.75942275515889 13.251394898288678  47.934852203011786 12.447723603487253  C 47.934852203011786 12.447723603487253  45.7317847183491 11.931998708427548  45.7317847183491 11.931998708427548  C 45.7317847183491 11.931998708427548  48.17963747908529 11.931998708427548  48.17963747908529 11.931998708427548  C 48.17963747908529 11.931998708427548  46.46614054656992 9.353374233128806  46.46614054656992 9.353374233128806  C 45.51963747908537 9.637022925411651  44.60577244841037 10.071091378753561  43.77350250976012 10.629793348401602  C 43.324729503625115 10.93493057797872  42.57813441160057 11.669838553438765  42.06000557724475 11.665540845979995  C 40.730005577244846 11.64405230868583  39.34288901282763 8.682931869551265  38.87779698828784 7.548337100419784  C 37.65387060791969 8.515321278656799  36.38098717233678 10.586816273813266  34.96123257110989 11.003693897319993  C 34.08816508644732 11.261556344849899  31.326171221416704 10.591113981272143  30.783563859453338 9.796038101388472  C 30.347030117122053 9.155679690022636  30.44494422755158 8.28324507587983  29.89825711098716 7.290474652889878  C 29.425005577244825 6.439528576041347  28.59681539319564 5.743299967710654  28.49482152816505 4.711850177591243  C 28.445864472950284 4.196125282531431  28.743686558839826 2.7134162092348175  28.845680423870526 2.133225702292608  C 28.845680423870526 2.133225702292608  27.37696876742887 1.1791346464320083  27.37696876742887 1.1791346464320083  C 26.7650055772448 0.8654020019373515  26.32439208031224 0.8439134646431837  25.663471834913505 0.8439134646431837  C 23.00755158951475 0.8439134646431837  24.121324595649654 2.6532483048109756  21.33893195761298 5.18889570552149  C 20.115005577244723 6.306299644817572  19.5112018962632 5.915208266063889  18.740128276631328 6.499696480464975  Z " fill-rule="evenodd" />
    </mask>
  </defs>
  <g transform="matrix(1 0 0 1 -951 -599 )">
    <path d="M 18.740128276631328 6.499696480464975  C 18.04249023982144 7.024016790442433  17.671232571109915 8.012489505973615  17.422367540434923 8.8376493380691  C 17.422367540434923 8.8376493380691  14.97451477969884 6.774749757830172  14.97451477969884 6.774749757830172  C 12.946876742889044 8.20588634162091  12.824484104852186 8.62276396512753  11.261938092582174 10.371930900871803  C 10.853962632459494 10.831785598966759  9.899300055772496 11.609670649015246  9.80954545454541 12.211349693251622  C 9.68715281650866 13.057998062641277  10.67853318460681 13.827287697772013  10.960036252091466 14.768485631255983  C 11.225220301171236 15.671004197610602  10.768287785833682 17.549102357119775  10.364392080312276 18.378559896674243  C 9.136385945342958 20.91420729738454  7.0924288901282795 20.308230545689288  5.754269380925821 23.277946399741605  C 5.3952509760179055 24.07731998708437  5.183103736753962 24.721976105908976  5.42788901282757 25.603006134969316  C 5.717551589514775 26.617265095253543  6.464146681539211 27.304898288666376  6.072490239821416 28.439493057797755  C 5.819545454545472 29.16150791088149  5.048471834913493 29.9522860833065  4.799606804238716 31.018117533096493  C 4.546662018962665 32.08824669034547  4.8934411600669705 33.7471617694543  4.469146681539296 34.800100096867986  C 4.163165086447206 35.54360348724568  2.7678890128276477 37.236900226025206  1.9927356385945005 39.44162415240555  C 1.5480423870607731 40.696554730384285  0.6912939208030895 46.92823054568941  0.5770607919686745 48.46680981595088  C 0.5403430005577351 48.97823700355182  0.5077049637479635 49.65297707458835  0.9279196876743622 50.009686793671335  C 1.3807724484104256 50.400778172425014  3.241140546569979 50.42226670971919  4.208042387060802 50.778976428802075  C 6.537582264361412 51.647113335486  7.4024902398214305 53.151310946076784  8.365312325711086 53.40057797868904  C 9.222060791968662 53.61976105908938  10.42558839933076 52.88485308362933  11.13138594534298 53.53380690991282  C 11.510803123257059 53.87762350661939  11.918778583379845 55.145447206974545  12.196201896263226 55.69125605424606  C 12.196201896263226 55.69125605424606  13.668993307306152 58.2698805295447  13.668993307306152 58.2698805295447  C 14.464545454545354 60.28550532773652  14.521662018962669 62.361298030351975  16.006692693809313 64.20071682273169  C 16.39018962632445 64.67776235066194  17.100066926938055 65.4599451081692  17.66715281650864 65.65763965127547  C 18.356631344115975 65.90260897642885  20.37203011712205 65.33531159186306  20.71064974902402 64.60899903132066  C 20.92279698828775 64.14484662576683  20.849361405465658 62.004588311268876  20.849361405465658 61.364229899903144  C 20.849361405465658 61.364229899903144  22.073287785833806 63.16926703261217  22.073287785833806 63.16926703261217  C 22.073287785833806 63.16926703261217  23.158502509760215 60.84850500484344  23.158502509760215 60.84850500484344  C 24.410987172336753 59.00908621246373  26.5773368655884 57.72836938973206  26.385588399330615 55.18412657410389  C 26.34887060791967 54.750058120761985  26.3162325711099 54.4578140135616  26.01025097601781 54.135485954149196  C 25.70018962632455 53.80026477236026  25.088226436140584 53.55529544720698  24.684330730619074 53.37049402647734  C 24.684330730619074 53.37049402647734  27.621754043502484 52.25738779463992  27.621754043502484 52.25738779463992  C 27.621754043502484 52.25738779463992  31.04466815393194 50.37928963513074  31.04466815393194 50.37928963513074  C 31.04466815393194 50.37928963513074  32.82344116006685 49.760419761059076  32.82344116006685 49.760419761059076  C 32.82344116006685 49.760419761059076  33.57819576129394 47.43536002583147  33.57819576129394 47.43536002583147  C 33.57819576129394 47.43536002583147  35.177459564975 44.34101065547302  35.177459564975 44.34101065547302  C 35.177459564975 44.34101065547302  34.96123257110989 41.24666128511458  34.96123257110989 41.24666128511458  C 36.8991160066926 42.10190506942209  36.81752091466817 42.13628672909257  38.63301171221413 40.988798837584774  C 38.63301171221413 40.988798837584774  37.16430005577247 38.66803680981594  37.16430005577247 38.66803680981594  C 39.75902398215275 37.6236938973199  39.15522030117122 36.61803035195353  42.30479085331836 36.60513722957701  C 42.239514779698816 35.749893445269606  42.0396068042387 34.88605424604455  42.13752091466812 34.026512754278265  C 42.24767428890126 33.033742331288316  42.7780423870608 31.38342266709724  42.7209258226437 30.50239263803679  C 42.631171221416615 29.217378107846347  41.65203011712218 28.443790765256733  41.856017847183466 27.15018082014854  C 42.2558337981037 24.580151759767553  42.459821528164994 25.826486922828533  41.08086447295032 23.277946399741605  C 41.08086447295032 23.277946399741605  42.54957612939208 22.762221504681897  42.54957612939208 22.762221504681897  C 42.54957612939208 22.762221504681897  40.5912939208031 22.246496609622195  40.5912939208031 22.246496609622195  C 40.5912939208031 22.246496609622195  40.5912939208031 19.41000968679365  40.5912939208031 19.41000968679365  C 42.44758226436138 20.12342912495964  43.13298103736766 19.930032289312233  44.99742889012827 19.41000968679365  C 44.99742889012827 19.41000968679365  44.26307306190744 21.98863416209229  44.26307306190744 21.98863416209229  C 45.07494422755164 21.34827575072656  46.39270496374793 20.04177268324184  46.437582264361424 18.89428479173395  C 46.462060791968646 18.210949305779774  45.97249023982154 17.557697772037418  46.12752091466817 16.83138521149491  C 46.24583379810364 16.28987407168227  46.853717233686545 15.589347755892806  47.1352203011712 15.026348078785995  C 47.494238706079116 14.30003551824338  47.75942275515889 13.251394898288678  47.934852203011786 12.447723603487253  C 47.934852203011786 12.447723603487253  45.7317847183491 11.931998708427548  45.7317847183491 11.931998708427548  C 45.7317847183491 11.931998708427548  48.17963747908529 11.931998708427548  48.17963747908529 11.931998708427548  C 48.17963747908529 11.931998708427548  46.46614054656992 9.353374233128806  46.46614054656992 9.353374233128806  C 45.51963747908537 9.637022925411651  44.60577244841037 10.071091378753561  43.77350250976012 10.629793348401602  C 43.324729503625115 10.93493057797872  42.57813441160057 11.669838553438765  42.06000557724475 11.665540845979995  C 40.730005577244846 11.64405230868583  39.34288901282763 8.682931869551265  38.87779698828784 7.548337100419784  C 37.65387060791969 8.515321278656799  36.38098717233678 10.586816273813266  34.96123257110989 11.003693897319993  C 34.08816508644732 11.261556344849899  31.326171221416704 10.591113981272143  30.783563859453338 9.796038101388472  C 30.347030117122053 9.155679690022636  30.44494422755158 8.28324507587983  29.89825711098716 7.290474652889878  C 29.425005577244825 6.439528576041347  28.59681539319564 5.743299967710654  28.49482152816505 4.711850177591243  C 28.445864472950284 4.196125282531431  28.743686558839826 2.7134162092348175  28.845680423870526 2.133225702292608  C 28.845680423870526 2.133225702292608  27.37696876742887 1.1791346464320083  27.37696876742887 1.1791346464320083  C 26.7650055772448 0.8654020019373515  26.32439208031224 0.8439134646431837  25.663471834913505 0.8439134646431837  C 23.00755158951475 0.8439134646431837  24.121324595649654 2.6532483048109756  21.33893195761298 5.18889570552149  C 20.115005577244723 6.306299644817572  19.5112018962632 5.915208266063889  18.740128276631328 6.499696480464975  Z " fill-rule="nonzero" fill="rgba(51, 153, 255, 1)" stroke="none" transform="matrix(1 0 0 1 951 599 )" class="fill" />
    <path d="M 18.740128276631328 6.499696480464975  C 18.04249023982144 7.024016790442433  17.671232571109915 8.012489505973615  17.422367540434923 8.8376493380691  C 17.422367540434923 8.8376493380691  14.97451477969884 6.774749757830172  14.97451477969884 6.774749757830172  C 12.946876742889044 8.20588634162091  12.824484104852186 8.62276396512753  11.261938092582174 10.371930900871803  C 10.853962632459494 10.831785598966759  9.899300055772496 11.609670649015246  9.80954545454541 12.211349693251622  C 9.68715281650866 13.057998062641277  10.67853318460681 13.827287697772013  10.960036252091466 14.768485631255983  C 11.225220301171236 15.671004197610602  10.768287785833682 17.549102357119775  10.364392080312276 18.378559896674243  C 9.136385945342958 20.91420729738454  7.0924288901282795 20.308230545689288  5.754269380925821 23.277946399741605  C 5.3952509760179055 24.07731998708437  5.183103736753962 24.721976105908976  5.42788901282757 25.603006134969316  C 5.717551589514775 26.617265095253543  6.464146681539211 27.304898288666376  6.072490239821416 28.439493057797755  C 5.819545454545472 29.16150791088149  5.048471834913493 29.9522860833065  4.799606804238716 31.018117533096493  C 4.546662018962665 32.08824669034547  4.8934411600669705 33.7471617694543  4.469146681539296 34.800100096867986  C 4.163165086447206 35.54360348724568  2.7678890128276477 37.236900226025206  1.9927356385945005 39.44162415240555  C 1.5480423870607731 40.696554730384285  0.6912939208030895 46.92823054568941  0.5770607919686745 48.46680981595088  C 0.5403430005577351 48.97823700355182  0.5077049637479635 49.65297707458835  0.9279196876743622 50.009686793671335  C 1.3807724484104256 50.400778172425014  3.241140546569979 50.42226670971919  4.208042387060802 50.778976428802075  C 6.537582264361412 51.647113335486  7.4024902398214305 53.151310946076784  8.365312325711086 53.40057797868904  C 9.222060791968662 53.61976105908938  10.42558839933076 52.88485308362933  11.13138594534298 53.53380690991282  C 11.510803123257059 53.87762350661939  11.918778583379845 55.145447206974545  12.196201896263226 55.69125605424606  C 12.196201896263226 55.69125605424606  13.668993307306152 58.2698805295447  13.668993307306152 58.2698805295447  C 14.464545454545354 60.28550532773652  14.521662018962669 62.361298030351975  16.006692693809313 64.20071682273169  C 16.39018962632445 64.67776235066194  17.100066926938055 65.4599451081692  17.66715281650864 65.65763965127547  C 18.356631344115975 65.90260897642885  20.37203011712205 65.33531159186306  20.71064974902402 64.60899903132066  C 20.92279698828775 64.14484662576683  20.849361405465658 62.004588311268876  20.849361405465658 61.364229899903144  C 20.849361405465658 61.364229899903144  22.073287785833806 63.16926703261217  22.073287785833806 63.16926703261217  C 22.073287785833806 63.16926703261217  23.158502509760215 60.84850500484344  23.158502509760215 60.84850500484344  C 24.410987172336753 59.00908621246373  26.5773368655884 57.72836938973206  26.385588399330615 55.18412657410389  C 26.34887060791967 54.750058120761985  26.3162325711099 54.4578140135616  26.01025097601781 54.135485954149196  C 25.70018962632455 53.80026477236026  25.088226436140584 53.55529544720698  24.684330730619074 53.37049402647734  C 24.684330730619074 53.37049402647734  27.621754043502484 52.25738779463992  27.621754043502484 52.25738779463992  C 27.621754043502484 52.25738779463992  31.04466815393194 50.37928963513074  31.04466815393194 50.37928963513074  C 31.04466815393194 50.37928963513074  32.82344116006685 49.760419761059076  32.82344116006685 49.760419761059076  C 32.82344116006685 49.760419761059076  33.57819576129394 47.43536002583147  33.57819576129394 47.43536002583147  C 33.57819576129394 47.43536002583147  35.177459564975 44.34101065547302  35.177459564975 44.34101065547302  C 35.177459564975 44.34101065547302  34.96123257110989 41.24666128511458  34.96123257110989 41.24666128511458  C 36.8991160066926 42.10190506942209  36.81752091466817 42.13628672909257  38.63301171221413 40.988798837584774  C 38.63301171221413 40.988798837584774  37.16430005577247 38.66803680981594  37.16430005577247 38.66803680981594  C 39.75902398215275 37.6236938973199  39.15522030117122 36.61803035195353  42.30479085331836 36.60513722957701  C 42.239514779698816 35.749893445269606  42.0396068042387 34.88605424604455  42.13752091466812 34.026512754278265  C 42.24767428890126 33.033742331288316  42.7780423870608 31.38342266709724  42.7209258226437 30.50239263803679  C 42.631171221416615 29.217378107846347  41.65203011712218 28.443790765256733  41.856017847183466 27.15018082014854  C 42.2558337981037 24.580151759767553  42.459821528164994 25.826486922828533  41.08086447295032 23.277946399741605  C 41.08086447295032 23.277946399741605  42.54957612939208 22.762221504681897  42.54957612939208 22.762221504681897  C 42.54957612939208 22.762221504681897  40.5912939208031 22.246496609622195  40.5912939208031 22.246496609622195  C 40.5912939208031 22.246496609622195  40.5912939208031 19.41000968679365  40.5912939208031 19.41000968679365  C 42.44758226436138 20.12342912495964  43.13298103736766 19.930032289312233  44.99742889012827 19.41000968679365  C 44.99742889012827 19.41000968679365  44.26307306190744 21.98863416209229  44.26307306190744 21.98863416209229  C 45.07494422755164 21.34827575072656  46.39270496374793 20.04177268324184  46.437582264361424 18.89428479173395  C 46.462060791968646 18.210949305779774  45.97249023982154 17.557697772037418  46.12752091466817 16.83138521149491  C 46.24583379810364 16.28987407168227  46.853717233686545 15.589347755892806  47.1352203011712 15.026348078785995  C 47.494238706079116 14.30003551824338  47.75942275515889 13.251394898288678  47.934852203011786 12.447723603487253  C 47.934852203011786 12.447723603487253  45.7317847183491 11.931998708427548  45.7317847183491 11.931998708427548  C 45.7317847183491 11.931998708427548  48.17963747908529 11.931998708427548  48.17963747908529 11.931998708427548  C 48.17963747908529 11.931998708427548  46.46614054656992 9.353374233128806  46.46614054656992 9.353374233128806  C 45.51963747908537 9.637022925411651  44.60577244841037 10.071091378753561  43.77350250976012 10.629793348401602  C 43.324729503625115 10.93493057797872  42.57813441160057 11.669838553438765  42.06000557724475 11.665540845979995  C 40.730005577244846 11.64405230868583  39.34288901282763 8.682931869551265  38.87779698828784 7.548337100419784  C 37.65387060791969 8.515321278656799  36.38098717233678 10.586816273813266  34.96123257110989 11.003693897319993  C 34.08816508644732 11.261556344849899  31.326171221416704 10.591113981272143  30.783563859453338 9.796038101388472  C 30.347030117122053 9.155679690022636  30.44494422755158 8.28324507587983  29.89825711098716 7.290474652889878  C 29.425005577244825 6.439528576041347  28.59681539319564 5.743299967710654  28.49482152816505 4.711850177591243  C 28.445864472950284 4.196125282531431  28.743686558839826 2.7134162092348175  28.845680423870526 2.133225702292608  C 28.845680423870526 2.133225702292608  27.37696876742887 1.1791346464320083  27.37696876742887 1.1791346464320083  C 26.7650055772448 0.8654020019373515  26.32439208031224 0.8439134646431837  25.663471834913505 0.8439134646431837  C 23.00755158951475 0.8439134646431837  24.121324595649654 2.6532483048109756  21.33893195761298 5.18889570552149  C 20.115005577244723 6.306299644817572  19.5112018962632 5.915208266063889  18.740128276631328 6.499696480464975  Z " stroke-width="0.38562664329535495" stroke-dasharray="0" stroke="rgba(0, 0, 0, 1)" fill="none" transform="matrix(1 0 0 1 951 599 )" class="stroke" mask="url(#Clip1548)" />
  </g>
</svg>