<?xml version="1.0" encoding="utf-8"?>
<svg version="1.1" xmlns:xlink="http://www.w3.org/1999/xlink" width="38px" height="87px" xmlns="http://www.w3.org/2000/svg">
  <defs>
    <pattern id="BGPattern" patternUnits="userSpaceOnUse" alignment="0 0" imageRepeat="None" />
    <mask fill="white" id="Clip1571">
      <path d="M 34.68813566231172 2.8389731953037063  C 34.68813566231172 2.8389731953037063  33.356378533721966 0.298593729662215  33.356378533721966 0.298593729662215  C 33.20302468255099 0.9229967633047687  33.09406273566632 1.78689685094711  32.73085624605103 2.2958280906968977  C 32.12954772435436 3.1297910465893453  30.38615657420049 3.7713010126604094  29.482175977824376 4.3957040463029635  C 28.913152477426983 4.7848867590527515  28.013207508713283 5.7899190392308375  27.44418400831589 5.866900235159348  C 26.988158082465475 5.926774498659348  26.003464932841464 5.41784325890956  25.36987138984571 5.3323085967667945  C 24.300430059311495 5.182622938016794  22.096977355644803 6.209038883730625  21.37056437641402 7.025894907194455  C 20.934716588875556 7.513442481408498  20.769255854717347 7.911178660372541  20.527118194973752 8.509921295372328  C 19.51417565171318 8.206273244765308  18.303487352995113 7.6460212077298815  17.217903511811357 7.945392525229774  C 15.567331797892516 8.403002967693817  15.28080223386251 9.566274372836054  14.699671850477886 11.075961159656694  C 13.880439435012082 13.210050980119885  13.202453987730024 14.625649638583399  13.101563296170175 16.977852847510846  C 11.963516295375289 16.977852847510846  9.784277357682956 16.888041452260953  8.795548580396638 17.41407962443925  C 7.923853005319704 17.88024353311755  7.911746122332472 18.761250553188507  7.3629007602470296 19.492571914509572  C 6.830197908811126 20.20678634340213  6.148176833866655 20.382132400794784  5.821290993212753 20.929554238508935  C 5.5226545461956205 21.592447870115638  5.990787355033163 22.336599430758085  5.821290993212753 23.397229241329047  C 5.821290993212753 23.397229241329047  5.094878013982081 25.450061132756602  5.094878013982081 25.450061132756602  C 5.094878013982081 25.450061132756602  4.364429407088786 29.04251694275469  4.364429407088786 29.04251694275469  C 3.8882253429264226 30.582140861325325  3.0528504168110806 33.01132526618129  2.3829362248537374 34.43120065775203  C 2.02780099056317 35.1924591508231  0.8332552024947445 37.155479647000654  0.7323645109348966 37.76705248132172  C 0.49022685119119874 39.25107886949949  3.07706418278544 42.93334607474768  3.1295273423964636 44.87070617228247  C 3.2304180339563118 48.4845456478163  0.9906446813280271 52.196749984814396  0.619366936387922 54.878261642991625  C 0.4095142979435101 56.40933209534801  1.1359272771741826 58.650340243489715  1.426492468866494 60.26694535798897  C 1.426492468866494 60.26694535798897  1.426492468866494 64.62921312727238  1.426492468866494 64.62921312727238  C 1.523347532763931 68.34997093048483  3.21831115096908 70.03928050780537  3.1093492040845154 72.33160945323282  C 3.0568860444733863 73.43500659487516  2.02780099056317 76.04381379023101  1.6524876179605488 77.20708519537312  C 1.3013880113322867 78.2848219383726  0.4458349469049963 83.13463728187017  0.5870819150886357 84.13539282894112  C 0.7000794896357159 84.90948152133357  1.3578867986058267 85.97866479811867  1.7251289158836265 86.70143269322558  C 3.1416342253835907 86.26520591629708  4.75184966267864 85.97438806501155  6.079571163605883 85.34143156515474  C 7.7301428775248295 84.54595920722666  8.488840878054683 83.68633585269133  9.227360740272694 83.34847393722708  C 10.425942156003531 82.8096055657275  10.926359986140147 83.51954326151282  12.61728797668299 82.53161791376336  C 14.413142286447986 81.48381830251378  15.018486435806969 80.38042116087155  16.007215213093392 79.64909979955048  C 16.98787273505489 78.91777843822942  17.59321688441387 79.1401685598008  18.40437804455496 78.55853285722962  C 19.167111672747225 78.01538775262281  19.82088335405503 77.28834312440888  20.769255854717347 76.80507228330185  C 22.44000570694814 75.95827912808814  24.554674602042212 76.42444303676643  26.33842202882008 75.834253867981  C 28.017243136375587 75.2782785640527  29.163361392495297 74.3288438142676  30.45072661679885 73.07576101387527  C 30.45072661679885 73.07576101387527  32.53311049059375 71.00154545691196  32.53311049059375 71.00154545691196  C 33.6590506084014 69.57311659912706  34.074720257627924 66.71198215044983  34.08279151295274 64.8858171137009  C 34.08682714061505 63.790973438272914  34.232109736461204 60.874241459202906  33.83661822554674 60.01034137156046  C 33.34427165073473 58.94115809477536  31.338564702525325 56.78140787566929  31.76230560707656 55.44706714624131  C 32.00040763915774 54.6943621193845  32.859996331247544 54.702915585598866  33.40480606567058 53.56958131220652  C 33.40480606567058 53.56958131220652  35.24505227972199 46.66693407728151  35.24505227972199 46.66693407728151  C 35.575973748038194 45.78592705721056  36.653486333897135 43.15145946321183  36.601023174286105 42.385924237033635  C 36.53241750402544 41.38944542306991  34.700242545298956 38.626675835857036  34.17157532152536 37.51044849489331  C 33.824511342559504 36.77057366735799  33.529910523204784 35.667176525715654  32.99317204410647 35.10692448868022  C 32.44836230968344 34.53384225232331  30.252980861341566 33.65711196535958  30.002771946273153 31.351952820610755  C 29.75256303120474 29.0895610069333  31.342600330187736 28.482264905719262  31.915659458247536 26.989685051327243  C 32.565395511892824 25.29609874089947  30.991500723559472 24.333833791792873  33.22723844852534 22.524775687472342  C 34.04243523632874 21.861882055865536  34.906059556080955 22.2638949679367  35.77775513115789 22.032951380151168  C 37.50903939832463 21.575340937687024  37.71082078144422 20.104144748830638  37.71485640910663 18.521753499188616  C 37.71889203676904 16.65282113136819  37.91663779222622 12.786654402512973  36.197460408046716 11.631936463584992  C 36.197460408046716 11.631936463584992  33.84065385320915 10.934828967121053  33.84065385320915 10.934828967121053  C 33.84065385320915 10.934828967121053  31.903552575260303 10.049545213942968  31.903552575260303 10.049545213942968  C 33.52183926788007 6.213315616837752  34.77691947088424 7.291052359837222  37.23058108961945 4.917465485374134  C 37.23058108961945 4.917465485374134  34.68813566231172 2.8389731953037063  34.68813566231172 2.8389731953037063  Z " fill-rule="evenodd" />
    </mask>
  </defs>
  <g transform="matrix(1 0 0 1 -879 -438 )">
    <path d="M 34.68813566231172 2.8389731953037063  C 34.68813566231172 2.8389731953037063  33.356378533721966 0.298593729662215  33.356378533721966 0.298593729662215  C 33.20302468255099 0.9229967633047687  33.09406273566632 1.78689685094711  32.73085624605103 2.2958280906968977  C 32.12954772435436 3.1297910465893453  30.38615657420049 3.7713010126604094  29.482175977824376 4.3957040463029635  C 28.913152477426983 4.7848867590527515  28.013207508713283 5.7899190392308375  27.44418400831589 5.866900235159348  C 26.988158082465475 5.926774498659348  26.003464932841464 5.41784325890956  25.36987138984571 5.3323085967667945  C 24.300430059311495 5.182622938016794  22.096977355644803 6.209038883730625  21.37056437641402 7.025894907194455  C 20.934716588875556 7.513442481408498  20.769255854717347 7.911178660372541  20.527118194973752 8.509921295372328  C 19.51417565171318 8.206273244765308  18.303487352995113 7.6460212077298815  17.217903511811357 7.945392525229774  C 15.567331797892516 8.403002967693817  15.28080223386251 9.566274372836054  14.699671850477886 11.075961159656694  C 13.880439435012082 13.210050980119885  13.202453987730024 14.625649638583399  13.101563296170175 16.977852847510846  C 11.963516295375289 16.977852847510846  9.784277357682956 16.888041452260953  8.795548580396638 17.41407962443925  C 7.923853005319704 17.88024353311755  7.911746122332472 18.761250553188507  7.3629007602470296 19.492571914509572  C 6.830197908811126 20.20678634340213  6.148176833866655 20.382132400794784  5.821290993212753 20.929554238508935  C 5.5226545461956205 21.592447870115638  5.990787355033163 22.336599430758085  5.821290993212753 23.397229241329047  C 5.821290993212753 23.397229241329047  5.094878013982081 25.450061132756602  5.094878013982081 25.450061132756602  C 5.094878013982081 25.450061132756602  4.364429407088786 29.04251694275469  4.364429407088786 29.04251694275469  C 3.8882253429264226 30.582140861325325  3.0528504168110806 33.01132526618129  2.3829362248537374 34.43120065775203  C 2.02780099056317 35.1924591508231  0.8332552024947445 37.155479647000654  0.7323645109348966 37.76705248132172  C 0.49022685119119874 39.25107886949949  3.07706418278544 42.93334607474768  3.1295273423964636 44.87070617228247  C 3.2304180339563118 48.4845456478163  0.9906446813280271 52.196749984814396  0.619366936387922 54.878261642991625  C 0.4095142979435101 56.40933209534801  1.1359272771741826 58.650340243489715  1.426492468866494 60.26694535798897  C 1.426492468866494 60.26694535798897  1.426492468866494 64.62921312727238  1.426492468866494 64.62921312727238  C 1.523347532763931 68.34997093048483  3.21831115096908 70.03928050780537  3.1093492040845154 72.33160945323282  C 3.0568860444733863 73.43500659487516  2.02780099056317 76.04381379023101  1.6524876179605488 77.20708519537312  C 1.3013880113322867 78.2848219383726  0.4458349469049963 83.13463728187017  0.5870819150886357 84.13539282894112  C 0.7000794896357159 84.90948152133357  1.3578867986058267 85.97866479811867  1.7251289158836265 86.70143269322558  C 3.1416342253835907 86.26520591629708  4.75184966267864 85.97438806501155  6.079571163605883 85.34143156515474  C 7.7301428775248295 84.54595920722666  8.488840878054683 83.68633585269133  9.227360740272694 83.34847393722708  C 10.425942156003531 82.8096055657275  10.926359986140147 83.51954326151282  12.61728797668299 82.53161791376336  C 14.413142286447986 81.48381830251378  15.018486435806969 80.38042116087155  16.007215213093392 79.64909979955048  C 16.98787273505489 78.91777843822942  17.59321688441387 79.1401685598008  18.40437804455496 78.55853285722962  C 19.167111672747225 78.01538775262281  19.82088335405503 77.28834312440888  20.769255854717347 76.80507228330185  C 22.44000570694814 75.95827912808814  24.554674602042212 76.42444303676643  26.33842202882008 75.834253867981  C 28.017243136375587 75.2782785640527  29.163361392495297 74.3288438142676  30.45072661679885 73.07576101387527  C 30.45072661679885 73.07576101387527  32.53311049059375 71.00154545691196  32.53311049059375 71.00154545691196  C 33.6590506084014 69.57311659912706  34.074720257627924 66.71198215044983  34.08279151295274 64.8858171137009  C 34.08682714061505 63.790973438272914  34.232109736461204 60.874241459202906  33.83661822554674 60.01034137156046  C 33.34427165073473 58.94115809477536  31.338564702525325 56.78140787566929  31.76230560707656 55.44706714624131  C 32.00040763915774 54.6943621193845  32.859996331247544 54.702915585598866  33.40480606567058 53.56958131220652  C 33.40480606567058 53.56958131220652  35.24505227972199 46.66693407728151  35.24505227972199 46.66693407728151  C 35.575973748038194 45.78592705721056  36.653486333897135 43.15145946321183  36.601023174286105 42.385924237033635  C 36.53241750402544 41.38944542306991  34.700242545298956 38.626675835857036  34.17157532152536 37.51044849489331  C 33.824511342559504 36.77057366735799  33.529910523204784 35.667176525715654  32.99317204410647 35.10692448868022  C 32.44836230968344 34.53384225232331  30.252980861341566 33.65711196535958  30.002771946273153 31.351952820610755  C 29.75256303120474 29.0895610069333  31.342600330187736 28.482264905719262  31.915659458247536 26.989685051327243  C 32.565395511892824 25.29609874089947  30.991500723559472 24.333833791792873  33.22723844852534 22.524775687472342  C 34.04243523632874 21.861882055865536  34.906059556080955 22.2638949679367  35.77775513115789 22.032951380151168  C 37.50903939832463 21.575340937687024  37.71082078144422 20.104144748830638  37.71485640910663 18.521753499188616  C 37.71889203676904 16.65282113136819  37.91663779222622 12.786654402512973  36.197460408046716 11.631936463584992  C 36.197460408046716 11.631936463584992  33.84065385320915 10.934828967121053  33.84065385320915 10.934828967121053  C 33.84065385320915 10.934828967121053  31.903552575260303 10.049545213942968  31.903552575260303 10.049545213942968  C 33.52183926788007 6.213315616837752  34.77691947088424 7.291052359837222  37.23058108961945 4.917465485374134  C 37.23058108961945 4.917465485374134  34.68813566231172 2.8389731953037063  34.68813566231172 2.8389731953037063  Z " fill-rule="nonzero" fill="rgba(30, 64, 138, 1)" stroke="none" transform="matrix(1 0 0 1 879 438 )" class="fill" />
    <path d="M 34.68813566231172 2.8389731953037063  C 34.68813566231172 2.8389731953037063  33.356378533721966 0.298593729662215  33.356378533721966 0.298593729662215  C 33.20302468255099 0.9229967633047687  33.09406273566632 1.78689685094711  32.73085624605103 2.2958280906968977  C 32.12954772435436 3.1297910465893453  30.38615657420049 3.7713010126604094  29.482175977824376 4.3957040463029635  C 28.913152477426983 4.7848867590527515  28.013207508713283 5.7899190392308375  27.44418400831589 5.866900235159348  C 26.988158082465475 5.926774498659348  26.003464932841464 5.41784325890956  25.36987138984571 5.3323085967667945  C 24.300430059311495 5.182622938016794  22.096977355644803 6.209038883730625  21.37056437641402 7.025894907194455  C 20.934716588875556 7.513442481408498  20.769255854717347 7.911178660372541  20.527118194973752 8.509921295372328  C 19.51417565171318 8.206273244765308  18.303487352995113 7.6460212077298815  17.217903511811357 7.945392525229774  C 15.567331797892516 8.403002967693817  15.28080223386251 9.566274372836054  14.699671850477886 11.075961159656694  C 13.880439435012082 13.210050980119885  13.202453987730024 14.625649638583399  13.101563296170175 16.977852847510846  C 11.963516295375289 16.977852847510846  9.784277357682956 16.888041452260953  8.795548580396638 17.41407962443925  C 7.923853005319704 17.88024353311755  7.911746122332472 18.761250553188507  7.3629007602470296 19.492571914509572  C 6.830197908811126 20.20678634340213  6.148176833866655 20.382132400794784  5.821290993212753 20.929554238508935  C 5.5226545461956205 21.592447870115638  5.990787355033163 22.336599430758085  5.821290993212753 23.397229241329047  C 5.821290993212753 23.397229241329047  5.094878013982081 25.450061132756602  5.094878013982081 25.450061132756602  C 5.094878013982081 25.450061132756602  4.364429407088786 29.04251694275469  4.364429407088786 29.04251694275469  C 3.8882253429264226 30.582140861325325  3.0528504168110806 33.01132526618129  2.3829362248537374 34.43120065775203  C 2.02780099056317 35.1924591508231  0.8332552024947445 37.155479647000654  0.7323645109348966 37.76705248132172  C 0.49022685119119874 39.25107886949949  3.07706418278544 42.93334607474768  3.1295273423964636 44.87070617228247  C 3.2304180339563118 48.4845456478163  0.9906446813280271 52.196749984814396  0.619366936387922 54.878261642991625  C 0.4095142979435101 56.40933209534801  1.1359272771741826 58.650340243489715  1.426492468866494 60.26694535798897  C 1.426492468866494 60.26694535798897  1.426492468866494 64.62921312727238  1.426492468866494 64.62921312727238  C 1.523347532763931 68.34997093048483  3.21831115096908 70.03928050780537  3.1093492040845154 72.33160945323282  C 3.0568860444733863 73.43500659487516  2.02780099056317 76.04381379023101  1.6524876179605488 77.20708519537312  C 1.3013880113322867 78.2848219383726  0.4458349469049963 83.13463728187017  0.5870819150886357 84.13539282894112  C 0.7000794896357159 84.90948152133357  1.3578867986058267 85.97866479811867  1.7251289158836265 86.70143269322558  C 3.1416342253835907 86.26520591629708  4.75184966267864 85.97438806501155  6.079571163605883 85.34143156515474  C 7.7301428775248295 84.54595920722666  8.488840878054683 83.68633585269133  9.227360740272694 83.34847393722708  C 10.425942156003531 82.8096055657275  10.926359986140147 83.51954326151282  12.61728797668299 82.53161791376336  C 14.413142286447986 81.48381830251378  15.018486435806969 80.38042116087155  16.007215213093392 79.64909979955048  C 16.98787273505489 78.91777843822942  17.59321688441387 79.1401685598008  18.40437804455496 78.55853285722962  C 19.167111672747225 78.01538775262281  19.82088335405503 77.28834312440888  20.769255854717347 76.80507228330185  C 22.44000570694814 75.95827912808814  24.554674602042212 76.42444303676643  26.33842202882008 75.834253867981  C 28.017243136375587 75.2782785640527  29.163361392495297 74.3288438142676  30.45072661679885 73.07576101387527  C 30.45072661679885 73.07576101387527  32.53311049059375 71.00154545691196  32.53311049059375 71.00154545691196  C 33.6590506084014 69.57311659912706  34.074720257627924 66.71198215044983  34.08279151295274 64.8858171137009  C 34.08682714061505 63.790973438272914  34.232109736461204 60.874241459202906  33.83661822554674 60.01034137156046  C 33.34427165073473 58.94115809477536  31.338564702525325 56.78140787566929  31.76230560707656 55.44706714624131  C 32.00040763915774 54.6943621193845  32.859996331247544 54.702915585598866  33.40480606567058 53.56958131220652  C 33.40480606567058 53.56958131220652  35.24505227972199 46.66693407728151  35.24505227972199 46.66693407728151  C 35.575973748038194 45.78592705721056  36.653486333897135 43.15145946321183  36.601023174286105 42.385924237033635  C 36.53241750402544 41.38944542306991  34.700242545298956 38.626675835857036  34.17157532152536 37.51044849489331  C 33.824511342559504 36.77057366735799  33.529910523204784 35.667176525715654  32.99317204410647 35.10692448868022  C 32.44836230968344 34.53384225232331  30.252980861341566 33.65711196535958  30.002771946273153 31.351952820610755  C 29.75256303120474 29.0895610069333  31.342600330187736 28.482264905719262  31.915659458247536 26.989685051327243  C 32.565395511892824 25.29609874089947  30.991500723559472 24.333833791792873  33.22723844852534 22.524775687472342  C 34.04243523632874 21.861882055865536  34.906059556080955 22.2638949679367  35.77775513115789 22.032951380151168  C 37.50903939832463 21.575340937687024  37.71082078144422 20.104144748830638  37.71485640910663 18.521753499188616  C 37.71889203676904 16.65282113136819  37.91663779222622 12.786654402512973  36.197460408046716 11.631936463584992  C 36.197460408046716 11.631936463584992  33.84065385320915 10.934828967121053  33.84065385320915 10.934828967121053  C 33.84065385320915 10.934828967121053  31.903552575260303 10.049545213942968  31.903552575260303 10.049545213942968  C 33.52183926788007 6.213315616837752  34.77691947088424 7.291052359837222  37.23058108961945 4.917465485374134  C 37.23058108961945 4.917465485374134  34.68813566231172 2.8389731953037063  34.68813566231172 2.8389731953037063  Z " stroke-width="0.38562664329535495" stroke-dasharray="0" stroke="rgba(0, 0, 0, 1)" fill="none" transform="matrix(1 0 0 1 879 438 )" class="stroke" mask="url(#Clip1571)" />
  </g>
</svg>