<svg t="1630992611637" class="icon" viewBox="0 0 1024 1024" version="1.1" xmlns="http://www.w3.org/2000/svg" p-id="2159" width="48" height="48"><path d="M815.36 842.24A448 448 0 0 1 64 512h74.88a373.12 373.12 0 0 0 64 211.2 366.72 366.72 0 0 0 173.44 136.32 370.56 370.56 0 0 0 410.88-95.36h-108.8a36.48 36.48 0 0 1-26.88-10.24 37.76 37.76 0 0 1 0-52.48 40.96 40.96 0 0 1 26.88-11.52h174.08a40.32 40.32 0 0 1 37.12 37.12v174.08a40.32 40.32 0 0 1-11.52 26.88 37.76 37.76 0 0 1-52.48 0 35.84 35.84 0 0 1-10.24-26.88v-58.24z m-576-582.4h108.8a36.48 36.48 0 0 1 26.88 10.24 37.76 37.76 0 0 1 0 52.48 40.96 40.96 0 0 1-26.88 11.52H171.52a40.32 40.32 0 0 1-37.12-37.12V123.52a40.32 40.32 0 0 1 11.52-26.88 35.84 35.84 0 0 1 26.24-10.24 35.84 35.84 0 0 1 26.24 10.24 35.84 35.84 0 0 1 10.24 26.88v58.24a448 448 0 0 1 230.4-111.36 454.4 454.4 0 0 1 256 31.36A448 448 0 0 1 960 512h-74.88a373.12 373.12 0 0 0-64-211.2 366.72 366.72 0 0 0-173.44-136.32 370.56 370.56 0 0 0-410.88 96z" p-id="2160" fill="#707070"></path></svg>